<svg class="marks" width="2254" height="298" viewBox="0 0 2254 298" version="1.1" xmlns="http://www.w3.org/2000/svg" xmlns:xlink="http://www.w3.org/1999/xlink"><rect width="2254" height="298" style="fill: #f9f9f9;"></rect><g transform="translate(52,11)"><g class="mark-group role-frame root"><g transform="translate(0,0)"><path class="background" d="M0.5,0.5h2100v200h-2100Z" style="fill: none; stroke: #ddd;"></path><g><g class="mark-group role-axis"><g transform="translate(0.5,0.5)"><path class="background" d="M0,0h0v0h0Z" style="pointer-events: none; fill: none;"></path><g><g class="mark-rule role-axis-grid" style="pointer-events: none;"><line transform="translate(0,200)" x2="2100" y2="0" style="fill: none; stroke: #ddd; stroke-width: 0.2; opacity: 1;"></line><line transform="translate(0,167)" x2="2100" y2="0" style="fill: none; stroke: #ddd; stroke-width: 0.2; opacity: 1;"></line><line transform="translate(0,133)" x2="2100" y2="0" style="fill: none; stroke: #ddd; stroke-width: 0.2; opacity: 1;"></line><line transform="translate(0,100)" x2="2100" y2="0" style="fill: none; stroke: #ddd; stroke-width: 0.2; opacity: 1;"></line><line transform="translate(0,67)" x2="2100" y2="0" style="fill: none; stroke: #ddd; stroke-width: 0.2; opacity: 1;"></line><line transform="translate(0,33)" x2="2100" y2="0" style="fill: none; stroke: #ddd; stroke-width: 0.2; opacity: 1;"></line><line transform="translate(0,0)" x2="2100" y2="0" style="fill: none; stroke: #ddd; stroke-width: 0.2; opacity: 1;"></line></g></g></g></g><g class="mark-rect role-mark marks"><path d="M1.0499999999999545,200h18.900000000000002v0h-18.900000000000002Z" style="fill: #703c5c;"></path><path d="M22.049999999999955,154.55333333333334h18.900000000000002v10.813333333333333h-18.900000000000002Z" style="fill: #ab5787;"></path><path d="M22.049999999999955,165.36666666666667h18.900000000000002v17.139999999999986h-18.900000000000002Z" style="fill: #51b2e5;"></path><path d="M22.049999999999955,182.50666666666666h18.900000000000002v17.49333333333334h-18.900000000000002Z" style="fill: #703c5c;"></path><path d="M43.049999999999955,142h18.900000000000002v2.2466666666666697h-18.900000000000002Z" style="fill: #ab5787;"></path><path d="M43.049999999999955,144.24666666666667h18.900000000000002v35.97999999999999h-18.900000000000002Z" style="fill: #51b2e5;"></path><path d="M43.049999999999955,180.22666666666666h18.900000000000002v19.77333333333334h-18.900000000000002Z" style="fill: #703c5c;"></path><path d="M64.04999999999995,118.48666666666666h18.900000000000002v0.5h-18.900000000000002Z" style="fill: #ab5787;"></path><path d="M64.04999999999995,118.98666666666666h18.900000000000002v68.62666666666668h-18.900000000000002Z" style="fill: #51b2e5;"></path><path d="M64.04999999999995,187.61333333333334h18.900000000000002v12.386666666666656h-18.900000000000002Z" style="fill: #703c5c;"></path><path d="M85.04999999999995,156.54h18.900000000000002v2.5600000000000023h-18.900000000000002Z" style="fill: #ab5787;"></path><path d="M85.04999999999995,159.1h18.900000000000002v27.646666666666675h-18.900000000000002Z" style="fill: #51b2e5;"></path><path d="M85.04999999999995,186.74666666666667h18.900000000000002v13.25333333333333h-18.900000000000002Z" style="fill: #703c5c;"></path><path d="M106.04999999999995,145.84h18.900000000000002v3.1599999999999966h-18.900000000000002Z" style="fill: #ab5787;"></path><path d="M106.04999999999995,149h18.900000000000002v37.826666666666654h-18.900000000000002Z" style="fill: #51b2e5;"></path><path d="M106.04999999999995,186.82666666666665h18.900000000000002v13.173333333333346h-18.900000000000002Z" style="fill: #703c5c;"></path><path d="M127.04999999999995,163.80666666666667h18.900000000000002v17.22666666666666h-18.900000000000002Z" style="fill: #51b2e5;"></path><path d="M127.04999999999995,181.03333333333333h18.900000000000002v18.96666666666667h-18.900000000000002Z" style="fill: #703c5c;"></path><path d="M148.04999999999995,173.43333333333334h18.900000000000002v6.193333333333328h-18.900000000000002Z" style="fill: #ab5787;"></path><path d="M148.04999999999995,179.62666666666667h18.900000000000002v11.113333333333344h-18.900000000000002Z" style="fill: #51b2e5;"></path><path d="M148.04999999999995,190.74h18.900000000000002v9.259999999999991h-18.900000000000002Z" style="fill: #703c5c;"></path><path d="M169.04999999999995,167.31333333333333h18.900000000000002v0h-18.900000000000002Z" style="fill: #ab5787;"></path><path d="M169.04999999999995,167.31333333333333h18.900000000000002v14.813333333333333h-18.900000000000002Z" style="fill: #51b2e5;"></path><path d="M169.04999999999995,182.12666666666667h18.900000000000002v17.873333333333335h-18.900000000000002Z" style="fill: #703c5c;"></path><path d="M190.04999999999995,165.76h18.900000000000002v27.073333333333352h-18.900000000000002Z" style="fill: #51b2e5;"></path><path d="M190.04999999999995,192.83333333333334h18.900000000000002v7.166666666666657h-18.900000000000002Z" style="fill: #703c5c;"></path><path d="M211.04999999999995,167.4h18.900000000000002v17.093333333333334h-18.900000000000002Z" style="fill: #51b2e5;"></path><path d="M211.04999999999995,184.49333333333334h18.900000000000002v15.50666666666666h-18.900000000000002Z" style="fill: #703c5c;"></path><path d="M232.04999999999995,175.10666666666665h18.900000000000002v24.893333333333345h-18.900000000000002Z" style="fill: #703c5c;"></path><path d="M253.04999999999995,186.01333333333332h18.900000000000002v13.986666666666679h-18.900000000000002Z" style="fill: #703c5c;"></path><path d="M274.04999999999995,182.41333333333333h18.900000000000002v17.586666666666673h-18.900000000000002Z" style="fill: #703c5c;"></path><path d="M295.04999999999995,187.61333333333334h18.900000000000002v12.386666666666656h-18.900000000000002Z" style="fill: #703c5c;"></path><path d="M316.04999999999995,181.73333333333335h18.900000000000002v18.26666666666665h-18.900000000000002Z" style="fill: #703c5c;"></path><path d="M337.04999999999995,180.32666666666665h18.900000000000002v19.673333333333346h-18.900000000000002Z" style="fill: #703c5c;"></path><path d="M358.04999999999995,140.47333333333333h18.900000000000002v59.52666666666667h-18.900000000000002Z" style="fill: #703c5c;"></path><path d="M379.04999999999995,200h18.900000000000002v0h-18.900000000000002Z" style="fill: #703c5c;"></path><path d="M400.04999999999995,168.33333333333331h18.900000000000002v6.800000000000011h-18.900000000000002Z" style="fill: #51b2e5;"></path><path d="M400.04999999999995,175.13333333333333h18.900000000000002v24.866666666666674h-18.900000000000002Z" style="fill: #703c5c;"></path><path d="M421.04999999999995,173.51333333333332h18.900000000000002v14.340000000000003h-18.900000000000002Z" style="fill: #51b2e5;"></path><path d="M421.04999999999995,187.85333333333332h18.900000000000002v12.146666666666675h-18.900000000000002Z" style="fill: #703c5c;"></path><path d="M442.04999999999995,176.73333333333332h18.900000000000002v15.240000000000009h-18.900000000000002Z" style="fill: #51b2e5;"></path><path d="M442.04999999999995,191.97333333333333h18.900000000000002v8.02666666666667h-18.900000000000002Z" style="fill: #703c5c;"></path><path d="M463.04999999999995,164.79333333333335h18.900000000000002v24.593333333333305h-18.900000000000002Z" style="fill: #51b2e5;"></path><path d="M463.04999999999995,189.38666666666666h18.900000000000002v10.613333333333344h-18.900000000000002Z" style="fill: #703c5c;"></path><path d="M484.04999999999995,139.84666666666666h18.900000000000002v55.55333333333334h-18.900000000000002Z" style="fill: #51b2e5;"></path><path d="M484.04999999999995,195.4h18.900000000000002v4.599999999999994h-18.900000000000002Z" style="fill: #703c5c;"></path><path d="M505.04999999999995,163.23333333333335h18.900000000000002v31.51333333333332h-18.900000000000002Z" style="fill: #51b2e5;"></path><path d="M505.04999999999995,194.74666666666667h18.900000000000002v5.25333333333333h-18.900000000000002Z" style="fill: #703c5c;"></path><path d="M526.05,197.07333333333332h18.900000000000002v2.9266666666666765h-18.900000000000002Z" style="fill: #703c5c;"></path><path d="M547.05,169.52666666666667h18.900000000000002v17.46666666666667h-18.900000000000002Z" style="fill: #51b2e5;"></path><path d="M547.05,186.99333333333334h18.900000000000002v13.00666666666666h-18.900000000000002Z" style="fill: #703c5c;"></path><path d="M568.05,170.45999999999998h18.900000000000002v25.400000000000034h-18.900000000000002Z" style="fill: #51b2e5;"></path><path d="M568.05,195.86h18.900000000000002v4.139999999999986h-18.900000000000002Z" style="fill: #703c5c;"></path><path d="M589.05,173.52h18.900000000000002v16.686666666666667h-18.900000000000002Z" style="fill: #51b2e5;"></path><path d="M589.05,190.20666666666668h18.900000000000002v9.793333333333322h-18.900000000000002Z" style="fill: #703c5c;"></path><path d="M610.05,152.38h18.900000000000002v47.620000000000005h-18.900000000000002Z" style="fill: #51b2e5;"></path><path d="M610.05,200h18.900000000000002v0h-18.900000000000002Z" style="fill: #703c5c;"></path><path d="M631.05,156.06h18.900000000000002v30.166666666666657h-18.900000000000002Z" style="fill: #51b2e5;"></path><path d="M631.05,186.22666666666666h18.900000000000002v13.77333333333334h-18.900000000000002Z" style="fill: #703c5c;"></path><path d="M652.05,160.32h18.900000000000002v23.980000000000018h-18.900000000000002Z" style="fill: #51b2e5;"></path><path d="M652.05,184.3h18.900000000000002v15.699999999999989h-18.900000000000002Z" style="fill: #703c5c;"></path><path d="M673.05,174.17333333333335h18.900000000000002v13.073333333333323h-18.900000000000002Z" style="fill: #51b2e5;"></path><path d="M673.05,187.24666666666667h18.900000000000002v12.75333333333333h-18.900000000000002Z" style="fill: #703c5c;"></path><path d="M694.05,152.48h18.900000000000002v30.03333333333333h-18.900000000000002Z" style="fill: #51b2e5;"></path><path d="M694.05,182.51333333333332h18.900000000000002v17.48666666666668h-18.900000000000002Z" style="fill: #703c5c;"></path><path d="M715.05,169.57999999999998h18.900000000000002v24.54000000000002h-18.900000000000002Z" style="fill: #51b2e5;"></path><path d="M715.05,194.12h18.900000000000002v5.8799999999999955h-18.900000000000002Z" style="fill: #703c5c;"></path><path d="M736.05,178.36666666666667h18.900000000000002v9.273333333333312h-18.900000000000002Z" style="fill: #51b2e5;"></path><path d="M736.05,187.64h18.900000000000002v12.360000000000014h-18.900000000000002Z" style="fill: #703c5c;"></path><path d="M757.05,170.44h18.900000000000002v25.44666666666666h-18.900000000000002Z" style="fill: #51b2e5;"></path><path d="M757.05,195.88666666666666h18.900000000000002v4.113333333333344h-18.900000000000002Z" style="fill: #703c5c;"></path><path d="M778.05,164.42000000000002h18.900000000000002v6.413333333333327h-18.900000000000002Z" style="fill: #51b2e5;"></path><path d="M778.05,170.83333333333334h18.900000000000002v29.166666666666657h-18.900000000000002Z" style="fill: #703c5c;"></path><path d="M799.05,191.93333333333334h18.900000000000002v8.066666666666663h-18.900000000000002Z" style="fill: #51b2e5;"></path><path d="M799.05,200h18.900000000000002v0h-18.900000000000002Z" style="fill: #703c5c;"></path><path d="M820.05,154.51333333333332h18.900000000000002v32.50666666666669h-18.900000000000002Z" style="fill: #51b2e5;"></path><path d="M820.05,187.02h18.900000000000002v12.97999999999999h-18.900000000000002Z" style="fill: #703c5c;"></path><path d="M841.05,163.12666666666667h18.900000000000002v27.680000000000007h-18.900000000000002Z" style="fill: #51b2e5;"></path><path d="M841.05,190.80666666666667h18.900000000000002v9.193333333333328h-18.900000000000002Z" style="fill: #703c5c;"></path><path d="M862.05,162.84666666666666h18.900000000000002v31.96666666666667h-18.900000000000002Z" style="fill: #51b2e5;"></path><path d="M862.05,194.81333333333333h18.900000000000002v5.186666666666667h-18.900000000000002Z" style="fill: #703c5c;"></path><path d="M883.05,174.08666666666667h18.900000000000002v7.24666666666667h-18.900000000000002Z" style="fill: #51b2e5;"></path><path d="M883.05,181.33333333333334h18.900000000000002v18.666666666666657h-18.900000000000002Z" style="fill: #703c5c;"></path><path d="M904.05,187.02666666666667h18.900000000000002v6.286666666666662h-18.900000000000002Z" style="fill: #51b2e5;"></path><path d="M904.05,193.31333333333333h18.900000000000002v6.686666666666667h-18.900000000000002Z" style="fill: #703c5c;"></path><path d="M925.05,195.88666666666666h18.900000000000002v0h-18.900000000000002Z" style="fill: #51b2e5;"></path><path d="M925.05,195.88666666666666h18.900000000000002v4.113333333333344h-18.900000000000002Z" style="fill: #703c5c;"></path><path d="M946.05,162.5h18.900000000000002v23.439999999999998h-18.900000000000002Z" style="fill: #51b2e5;"></path><path d="M946.05,185.94h18.900000000000002v14.060000000000002h-18.900000000000002Z" style="fill: #703c5c;"></path><path d="M967.05,170.40666666666667h18.900000000000002v20.560000000000002h-18.900000000000002Z" style="fill: #51b2e5;"></path><path d="M967.05,190.96666666666667h18.900000000000002v9.033333333333331h-18.900000000000002Z" style="fill: #703c5c;"></path><path d="M988.05,81.72h18.900000000000002v62.5h-18.900000000000002Z" style="fill: #51b2e5;"></path><path d="M988.05,144.22h18.900000000000002v55.78h-18.900000000000002Z" style="fill: #703c5c;"></path><path d="M1009.05,184.66h18.900000000000002v7.5733333333333235h-18.900000000000002Z" style="fill: #51b2e5;"></path><path d="M1009.05,192.23333333333332h18.900000000000002v7.76666666666668h-18.900000000000002Z" style="fill: #703c5c;"></path><path d="M1030.05,127.29333333333332h18.900000000000002v49.18000000000001h-18.900000000000002Z" style="fill: #51b2e5;"></path><path d="M1030.05,176.47333333333333h18.900000000000002v23.52666666666667h-18.900000000000002Z" style="fill: #703c5c;"></path><path d="M1051.05,170.29333333333332h18.900000000000002v9.873333333333335h-18.900000000000002Z" style="fill: #51b2e5;"></path><path d="M1051.05,180.16666666666666h18.900000000000002v19.833333333333343h-18.900000000000002Z" style="fill: #703c5c;"></path><path d="M1072.05,162.26h18.900000000000002v23.03333333333333h-18.900000000000002Z" style="fill: #51b2e5;"></path><path d="M1072.05,185.29333333333332h18.900000000000002v14.706666666666678h-18.900000000000002Z" style="fill: #703c5c;"></path><path d="M1093.05,158.39333333333332h18.900000000000002v20.313333333333333h-18.900000000000002Z" style="fill: #51b2e5;"></path><path d="M1093.05,178.70666666666665h18.900000000000002v21.29333333333335h-18.900000000000002Z" style="fill: #703c5c;"></path><path d="M1114.05,160.13333333333333h18.900000000000002v15.326666666666682h-18.900000000000002Z" style="fill: #51b2e5;"></path><path d="M1114.05,175.46h18.900000000000002v24.539999999999992h-18.900000000000002Z" style="fill: #703c5c;"></path><path d="M1135.05,160.98000000000002h18.900000000000002v25.046666666666653h-18.900000000000002Z" style="fill: #51b2e5;"></path><path d="M1135.05,186.02666666666667h18.900000000000002v13.97333333333333h-18.900000000000002Z" style="fill: #703c5c;"></path><path d="M1156.05,143.18h18.900000000000002v23.933333333333337h-18.900000000000002Z" style="fill: #51b2e5;"></path><path d="M1156.05,167.11333333333334h18.900000000000002v32.886666666666656h-18.900000000000002Z" style="fill: #703c5c;"></path><path d="M1177.05,160.80666666666667h18.900000000000002v28.846666666666664h-18.900000000000002Z" style="fill: #51b2e5;"></path><path d="M1177.05,189.65333333333334h18.900000000000002v10.346666666666664h-18.900000000000002Z" style="fill: #703c5c;"></path><path d="M1198.05,130.23333333333335h18.900000000000002v38.886666666666656h-18.900000000000002Z" style="fill: #51b2e5;"></path><path d="M1198.05,169.12h18.900000000000002v30.879999999999995h-18.900000000000002Z" style="fill: #703c5c;"></path><path d="M1219.05,152.64h18.900000000000002v17.093333333333334h-18.900000000000002Z" style="fill: #51b2e5;"></path><path d="M1219.05,169.73333333333332h18.900000000000002v30.26666666666668h-18.900000000000002Z" style="fill: #703c5c;"></path><path d="M1240.05,156.22666666666666h18.900000000000002v32.866666666666674h-18.900000000000002Z" style="fill: #51b2e5;"></path><path d="M1240.05,189.09333333333333h18.900000000000002v10.906666666666666h-18.900000000000002Z" style="fill: #703c5c;"></path><path d="M1261.05,200h18.900000000000002v0h-18.900000000000002Z" style="fill: #703c5c;"></path><path d="M1282.05,33.333333333333314h18.900000000000002v166.66666666666669h-18.900000000000002Z" style="fill: #51b2e5;"></path><path d="M1282.05,200h18.900000000000002v0h-18.900000000000002Z" style="fill: #703c5c;"></path><path d="M1303.05,187.7h18.900000000000002v10.926666666666677h-18.900000000000002Z" style="fill: #51b2e5;"></path><path d="M1303.05,198.62666666666667h18.900000000000002v1.3733333333333348h-18.900000000000002Z" style="fill: #703c5c;"></path><path d="M1324.05,156.51999999999998h18.900000000000002v35.68000000000001h-18.900000000000002Z" style="fill: #51b2e5;"></path><path d="M1324.05,192.2h18.900000000000002v7.800000000000011h-18.900000000000002Z" style="fill: #703c5c;"></path><path d="M1345.05,176.86666666666667h18.900000000000002v16.21333333333334h-18.900000000000002Z" style="fill: #51b2e5;"></path><path d="M1345.05,193.08h18.900000000000002v6.9199999999999875h-18.900000000000002Z" style="fill: #703c5c;"></path><path d="M1366.05,147.59333333333333h18.900000000000002v37.31333333333333h-18.900000000000002Z" style="fill: #51b2e5;"></path><path d="M1366.05,184.90666666666667h18.900000000000002v15.093333333333334h-18.900000000000002Z" style="fill: #703c5c;"></path><path d="M1387.05,166.66666666666666h18.900000000000002v18.560000000000002h-18.900000000000002Z" style="fill: #51b2e5;"></path><path d="M1387.05,185.22666666666666h18.900000000000002v14.77333333333334h-18.900000000000002Z" style="fill: #703c5c;"></path><path d="M1408.05,179.48666666666668h18.900000000000002v20.51333333333332h-18.900000000000002Z" style="fill: #51b2e5;"></path><path d="M1408.05,200h18.900000000000002v0h-18.900000000000002Z" style="fill: #703c5c;"></path><path d="M1429.05,173.81333333333333h18.900000000000002v11.693333333333328h-18.900000000000002Z" style="fill: #51b2e5;"></path><path d="M1429.05,185.50666666666666h18.900000000000002v14.49333333333334h-18.900000000000002Z" style="fill: #703c5c;"></path><path d="M1450.05,200h18.900000000000002v0h-18.900000000000002Z" style="fill: #51b2e5;"></path><path d="M1471.05,158.2h18.900000000000002v13.533333333333331h-18.900000000000002Z" style="fill: #51b2e5;"></path><path d="M1471.05,171.73333333333332h18.900000000000002v28.26666666666668h-18.900000000000002Z" style="fill: #703c5c;"></path><path d="M1492.05,170.58666666666667h18.900000000000002v29.413333333333327h-18.900000000000002Z" style="fill: #51b2e5;"></path><path d="M1492.05,200h18.900000000000002v0h-18.900000000000002Z" style="fill: #703c5c;"></path><path d="M1513.05,98.64h18.900000000000002v84.33999999999999h-18.900000000000002Z" style="fill: #51b2e5;"></path><path d="M1513.05,182.98h18.900000000000002v17.02000000000001h-18.900000000000002Z" style="fill: #703c5c;"></path><path d="M1534.05,151.13333333333333h18.900000000000002v0h-18.900000000000002Z" style="fill: #51b2e5;"></path><path d="M1534.05,151.13333333333333h18.900000000000002v48.866666666666674h-18.900000000000002Z" style="fill: #703c5c;"></path><path d="M1555.05,156.19333333333333h18.900000000000002v39.60666666666668h-18.900000000000002Z" style="fill: #51b2e5;"></path><path d="M1555.05,195.8h18.900000000000002v4.199999999999989h-18.900000000000002Z" style="fill: #703c5c;"></path><path d="M1576.05,161.76h18.900000000000002v27.78h-18.900000000000002Z" style="fill: #51b2e5;"></path><path d="M1576.05,189.54h18.900000000000002v10.460000000000008h-18.900000000000002Z" style="fill: #703c5c;"></path><path d="M1597.05,186.27333333333334h18.900000000000002v7.4599999999999795h-18.900000000000002Z" style="fill: #51b2e5;"></path><path d="M1597.05,193.73333333333332h18.900000000000002v6.26666666666668h-18.900000000000002Z" style="fill: #703c5c;"></path><path d="M1618.05,16.23999999999998h18.900000000000002v166.66666666666669h-18.900000000000002Z" style="fill: #51b2e5;"></path><path d="M1618.05,182.90666666666667h18.900000000000002v17.093333333333334h-18.900000000000002Z" style="fill: #703c5c;"></path><path d="M1639.05,196.91333333333333h18.900000000000002v0h-18.900000000000002Z" style="fill: #51b2e5;"></path><path d="M1639.05,196.91333333333333h18.900000000000002v3.086666666666673h-18.900000000000002Z" style="fill: #703c5c;"></path><path d="M1660.05,160.61333333333334h18.900000000000002v25.639999999999986h-18.900000000000002Z" style="fill: #51b2e5;"></path><path d="M1660.05,186.25333333333333h18.900000000000002v13.74666666666667h-18.900000000000002Z" style="fill: #703c5c;"></path><path d="M1681.05,157.32h18.900000000000002v24.75999999999999h-18.900000000000002Z" style="fill: #51b2e5;"></path><path d="M1681.05,182.07999999999998h18.900000000000002v17.920000000000016h-18.900000000000002Z" style="fill: #703c5c;"></path><path d="M1702.05,160.15333333333334h18.900000000000002v25.840000000000003h-18.900000000000002Z" style="fill: #51b2e5;"></path><path d="M1702.05,185.99333333333334h18.900000000000002v14.00666666666666h-18.900000000000002Z" style="fill: #703c5c;"></path><path d="M1723.05,167.34666666666666h18.900000000000002v24.953333333333347h-18.900000000000002Z" style="fill: #51b2e5;"></path><path d="M1723.05,192.3h18.900000000000002v7.699999999999989h-18.900000000000002Z" style="fill: #703c5c;"></path><path d="M1744.05,142.83999999999997h18.900000000000002v48.48666666666668h-18.900000000000002Z" style="fill: #51b2e5;"></path><path d="M1744.05,191.32666666666665h18.900000000000002v8.673333333333346h-18.900000000000002Z" style="fill: #703c5c;"></path><path d="M1765.05,185.52h18.900000000000002v10.579999999999984h-18.900000000000002Z" style="fill: #51b2e5;"></path><path d="M1765.05,196.1h18.900000000000002v3.9000000000000057h-18.900000000000002Z" style="fill: #703c5c;"></path><path d="M1786.05,200h18.900000000000002v0h-18.900000000000002Z" style="fill: #51b2e5;"></path><path d="M1786.05,200h18.900000000000002v0h-18.900000000000002Z" style="fill: #703c5c;"></path><path d="M1807.05,178.68h18.900000000000002v7.406666666666666h-18.900000000000002Z" style="fill: #51b2e5;"></path><path d="M1807.05,186.08666666666667h18.900000000000002v13.913333333333327h-18.900000000000002Z" style="fill: #703c5c;"></path><path d="M1828.05,153.68h18.900000000000002v28.806666666666672h-18.900000000000002Z" style="fill: #51b2e5;"></path><path d="M1828.05,182.48666666666668h18.900000000000002v17.51333333333332h-18.900000000000002Z" style="fill: #703c5c;"></path><path d="M1849.05,184.40666666666667h18.900000000000002v7.680000000000007h-18.900000000000002Z" style="fill: #51b2e5;"></path><path d="M1849.05,192.08666666666667h18.900000000000002v7.913333333333327h-18.900000000000002Z" style="fill: #703c5c;"></path><path d="M1870.05,167.07999999999998h18.900000000000002v17.600000000000023h-18.900000000000002Z" style="fill: #51b2e5;"></path><path d="M1870.05,184.68h18.900000000000002v15.319999999999993h-18.900000000000002Z" style="fill: #703c5c;"></path><path d="M1891.05,160.48000000000002h18.900000000000002v26.293333333333322h-18.900000000000002Z" style="fill: #51b2e5;"></path><path d="M1891.05,186.77333333333334h18.900000000000002v13.22666666666666h-18.900000000000002Z" style="fill: #703c5c;"></path><path d="M1912.05,147.76h18.900000000000002v28.98666666666668h-18.900000000000002Z" style="fill: #51b2e5;"></path><path d="M1912.05,176.74666666666667h18.900000000000002v23.25333333333333h-18.900000000000002Z" style="fill: #703c5c;"></path><path d="M1933.05,145.38h18.900000000000002v37.379999999999995h-18.900000000000002Z" style="fill: #51b2e5;"></path><path d="M1933.05,182.76h18.900000000000002v17.24000000000001h-18.900000000000002Z" style="fill: #703c5c;"></path><path d="M1954.05,150.35333333333332h18.900000000000002v36.913333333333355h-18.900000000000002Z" style="fill: #51b2e5;"></path><path d="M1954.05,187.26666666666668h18.900000000000002v12.73333333333332h-18.900000000000002Z" style="fill: #703c5c;"></path><path d="M1975.05,165.73333333333335h18.900000000000002v21.273333333333312h-18.900000000000002Z" style="fill: #51b2e5;"></path><path d="M1975.05,187.00666666666666h18.900000000000002v12.99333333333334h-18.900000000000002Z" style="fill: #703c5c;"></path><path d="M1996.05,141.12h18.900000000000002v50.14666666666665h-18.900000000000002Z" style="fill: #51b2e5;"></path><path d="M1996.05,191.26666666666665h18.900000000000002v8.733333333333348h-18.900000000000002Z" style="fill: #703c5c;"></path><path d="M2017.05,200h18.900000000000002v0h-18.900000000000002Z" style="fill: #51b2e5;"></path><path d="M2038.05,136.58666666666667h18.900000000000002v28.98666666666665h-18.900000000000002Z" style="fill: #51b2e5;"></path><path d="M2038.05,165.57333333333332h18.900000000000002v34.42666666666668h-18.900000000000002Z" style="fill: #703c5c;"></path><path d="M2059.05,116.43999999999998h18.900000000000002v78.43333333333335h-18.900000000000002Z" style="fill: #51b2e5;"></path><path d="M2059.05,194.87333333333333h18.900000000000002v5.126666666666665h-18.900000000000002Z" style="fill: #703c5c;"></path><path d="M2080.05,160.11333333333334h18.900000000000002v36.17333333333332h-18.900000000000002Z" style="fill: #51b2e5;"></path><path d="M2080.05,196.28666666666666h18.900000000000002v3.7133333333333383h-18.900000000000002Z" style="fill: #703c5c;"></path></g><g class="mark-group role-legend"><g transform="translate(2118,0)"><path class="background" d="M0,0h79v62h-79Z" style="pointer-events: none; fill: none;"></path><g><g class="mark-group role-legend-entry"><g transform="translate(1,17)"><path class="background" d="M0,0h0v0h0Z" style="pointer-events: none; fill: none;"></path><g><g class="mark-group role-scope"><g transform="translate(0,0)"><path class="background" d="M0,0h76.5322265625v11.5h-76.5322265625Z" style="pointer-events: none; fill: none; opacity: 1;"></path><g><g class="mark-symbol role-legend-symbol" style="pointer-events: none;"><path transform="translate(5.5,5.5)" d="M-2.7386127875258306,-2.7386127875258306h5.477225575051661v5.477225575051661h-5.477225575051661Z" style="fill: #ab5787; stroke-width: 1.5; opacity: 1;"></path></g><g class="mark-text role-legend-label" style="pointer-events: none;"><text text-anchor="start" transform="translate(15,8.5)" style="font-family: sans-serif; font-size: 11px; fill: #000; opacity: 1;">codeium</text></g></g></g><g transform="translate(0,16)"><path class="background" d="M0,0h76.5322265625v11.5h-76.5322265625Z" style="pointer-events: none; fill: none; opacity: 1;"></path><g><g class="mark-symbol role-legend-symbol" style="pointer-events: none;"><path transform="translate(5.5,5.5)" d="M-2.7386127875258306,-2.7386127875258306h5.477225575051661v5.477225575051661h-5.477225575051661Z" style="fill: #51b2e5; stroke-width: 1.5; opacity: 1;"></path></g><g class="mark-text role-legend-label" style="pointer-events: none;"><text text-anchor="start" transform="translate(15,8.5)" style="font-family: sans-serif; font-size: 11px; fill: #000; opacity: 1;">copilot</text></g></g></g><g transform="translate(0,32)"><path class="background" d="M0,0h76.5322265625v11.5h-76.5322265625Z" style="pointer-events: none; fill: none; opacity: 1;"></path><g><g class="mark-symbol role-legend-symbol" style="pointer-events: none;"><path transform="translate(5.5,5.5)" d="M-2.7386127875258306,-2.7386127875258306h5.477225575051661v5.477225575051661h-5.477225575051661Z" style="fill: #703c5c; stroke-width: 1.5; opacity: 1;"></path></g><g class="mark-text role-legend-label" style="pointer-events: none;"><text text-anchor="start" transform="translate(15,8.5)" style="font-family: sans-serif; font-size: 11px; fill: #000; opacity: 1;">supermaven</text></g></g></g></g></g></g></g><g class="mark-text role-legend-title" style="pointer-events: none;"><text text-anchor="start" transform="translate(1,10)" style="font-family: sans-serif; font-size: 11px; font-weight: bold; fill: #000; opacity: 1;">source_name</text></g></g></g></g><g class="mark-group role-axis"><g transform="translate(0.5,200.5)"><path class="background" d="M0,0h0v0h0Z" style="pointer-events: none; fill: none;"></path><g><g class="mark-rule role-axis-tick" style="pointer-events: none;"><line transform="translate(9,0)" x2="0" y2="10" style="fill: none; stroke: #979797; stroke-width: 0.2; opacity: 1;"></line><line transform="translate(30,0)" x2="0" y2="10" style="fill: none; stroke: #979797; stroke-width: 0.2; opacity: 1;"></line><line transform="translate(51,0)" x2="0" y2="10" style="fill: none; stroke: #979797; stroke-width: 0.2; opacity: 1;"></line><line transform="translate(72,0)" x2="0" y2="10" style="fill: none; stroke: #979797; stroke-width: 0.2; opacity: 1;"></line><line transform="translate(93,0)" x2="0" y2="10" style="fill: none; stroke: #979797; stroke-width: 0.2; opacity: 1;"></line><line transform="translate(114,0)" x2="0" y2="10" style="fill: none; stroke: #979797; stroke-width: 0.2; opacity: 1;"></line><line transform="translate(135,0)" x2="0" y2="10" style="fill: none; stroke: #979797; stroke-width: 0.2; opacity: 1;"></line><line transform="translate(156,0)" x2="0" y2="10" style="fill: none; stroke: #979797; stroke-width: 0.2; opacity: 1;"></line><line transform="translate(177,0)" x2="0" y2="10" style="fill: none; stroke: #979797; stroke-width: 0.2; opacity: 1;"></line><line transform="translate(198,0)" x2="0" y2="10" style="fill: none; stroke: #979797; stroke-width: 0.2; opacity: 1;"></line><line transform="translate(219,0)" x2="0" y2="10" style="fill: none; stroke: #979797; stroke-width: 0.2; opacity: 1;"></line><line transform="translate(240,0)" x2="0" y2="10" style="fill: none; stroke: #979797; stroke-width: 0.2; opacity: 1;"></line><line transform="translate(261,0)" x2="0" y2="10" style="fill: none; stroke: #979797; stroke-width: 0.2; opacity: 1;"></line><line transform="translate(282,0)" x2="0" y2="10" style="fill: none; stroke: #979797; stroke-width: 0.2; opacity: 1;"></line><line transform="translate(303,0)" x2="0" y2="10" style="fill: none; stroke: #979797; stroke-width: 0.2; opacity: 1;"></line><line transform="translate(324,0)" x2="0" y2="10" style="fill: none; stroke: #979797; stroke-width: 0.2; opacity: 1;"></line><line transform="translate(345,0)" x2="0" y2="10" style="fill: none; stroke: #979797; stroke-width: 0.2; opacity: 1;"></line><line transform="translate(366,0)" x2="0" y2="10" style="fill: none; stroke: #979797; stroke-width: 0.2; opacity: 1;"></line><line transform="translate(387,0)" x2="0" y2="10" style="fill: none; stroke: #979797; stroke-width: 0.2; opacity: 1;"></line><line transform="translate(408,0)" x2="0" y2="10" style="fill: none; stroke: #979797; stroke-width: 0.2; opacity: 1;"></line><line transform="translate(429,0)" x2="0" y2="10" style="fill: none; stroke: #979797; stroke-width: 0.2; opacity: 1;"></line><line transform="translate(450,0)" x2="0" y2="10" style="fill: none; stroke: #979797; stroke-width: 0.2; opacity: 1;"></line><line transform="translate(471,0)" x2="0" y2="10" style="fill: none; stroke: #979797; stroke-width: 0.2; opacity: 1;"></line><line transform="translate(492,0)" x2="0" y2="10" style="fill: none; stroke: #979797; stroke-width: 0.2; opacity: 1;"></line><line transform="translate(514,0)" x2="0" y2="10" style="fill: none; stroke: #979797; stroke-width: 0.2; opacity: 1;"></line><line transform="translate(535,0)" x2="0" y2="10" style="fill: none; stroke: #979797; stroke-width: 0.2; opacity: 1;"></line><line transform="translate(556,0)" x2="0" y2="10" style="fill: none; stroke: #979797; stroke-width: 0.2; opacity: 1;"></line><line transform="translate(577,0)" x2="0" y2="10" style="fill: none; stroke: #979797; stroke-width: 0.2; opacity: 1;"></line><line transform="translate(598,0)" x2="0" y2="10" style="fill: none; stroke: #979797; stroke-width: 0.2; opacity: 1;"></line><line transform="translate(619,0)" x2="0" y2="10" style="fill: none; stroke: #979797; stroke-width: 0.2; opacity: 1;"></line><line transform="translate(640,0)" x2="0" y2="10" style="fill: none; stroke: #979797; stroke-width: 0.2; opacity: 1;"></line><line transform="translate(661,0)" x2="0" y2="10" style="fill: none; stroke: #979797; stroke-width: 0.2; opacity: 1;"></line><line transform="translate(682,0)" x2="0" y2="10" style="fill: none; stroke: #979797; stroke-width: 0.2; opacity: 1;"></line><line transform="translate(703,0)" x2="0" y2="10" style="fill: none; stroke: #979797; stroke-width: 0.2; opacity: 1;"></line><line transform="translate(724,0)" x2="0" y2="10" style="fill: none; stroke: #979797; stroke-width: 0.2; opacity: 1;"></line><line transform="translate(745,0)" x2="0" y2="10" style="fill: none; stroke: #979797; stroke-width: 0.2; opacity: 1;"></line><line transform="translate(766,0)" x2="0" y2="10" style="fill: none; stroke: #979797; stroke-width: 0.2; opacity: 1;"></line><line transform="translate(787,0)" x2="0" y2="10" style="fill: none; stroke: #979797; stroke-width: 0.2; opacity: 1;"></line><line transform="translate(808,0)" x2="0" y2="10" style="fill: none; stroke: #979797; stroke-width: 0.2; opacity: 1;"></line><line transform="translate(829,0)" x2="0" y2="10" style="fill: none; stroke: #979797; stroke-width: 0.2; opacity: 1;"></line><line transform="translate(850,0)" x2="0" y2="10" style="fill: none; stroke: #979797; stroke-width: 0.2; opacity: 1;"></line><line transform="translate(871,0)" x2="0" y2="10" style="fill: none; stroke: #979797; stroke-width: 0.2; opacity: 1;"></line><line transform="translate(892,0)" x2="0" y2="10" style="fill: none; stroke: #979797; stroke-width: 0.2; opacity: 1;"></line><line transform="translate(913,0)" x2="0" y2="10" style="fill: none; stroke: #979797; stroke-width: 0.2; opacity: 1;"></line><line transform="translate(934,0)" x2="0" y2="10" style="fill: none; stroke: #979797; stroke-width: 0.2; opacity: 1;"></line><line transform="translate(955,0)" x2="0" y2="10" style="fill: none; stroke: #979797; stroke-width: 0.2; opacity: 1;"></line><line transform="translate(976,0)" x2="0" y2="10" style="fill: none; stroke: #979797; stroke-width: 0.2; opacity: 1;"></line><line transform="translate(997,0)" x2="0" y2="10" style="fill: none; stroke: #979797; stroke-width: 0.2; opacity: 1;"></line><line transform="translate(1018,0)" x2="0" y2="10" style="fill: none; stroke: #979797; stroke-width: 0.2; opacity: 1;"></line><line transform="translate(1039,0)" x2="0" y2="10" style="fill: none; stroke: #979797; stroke-width: 0.2; opacity: 1;"></line><line transform="translate(1060,0)" x2="0" y2="10" style="fill: none; stroke: #979797; stroke-width: 0.2; opacity: 1;"></line><line transform="translate(1081,0)" x2="0" y2="10" style="fill: none; stroke: #979797; stroke-width: 0.2; opacity: 1;"></line><line transform="translate(1102,0)" x2="0" y2="10" style="fill: none; stroke: #979797; stroke-width: 0.2; opacity: 1;"></line><line transform="translate(1123,0)" x2="0" y2="10" style="fill: none; stroke: #979797; stroke-width: 0.2; opacity: 1;"></line><line transform="translate(1144,0)" x2="0" y2="10" style="fill: none; stroke: #979797; stroke-width: 0.2; opacity: 1;"></line><line transform="translate(1165,0)" x2="0" y2="10" style="fill: none; stroke: #979797; stroke-width: 0.2; opacity: 1;"></line><line transform="translate(1186,0)" x2="0" y2="10" style="fill: none; stroke: #979797; stroke-width: 0.2; opacity: 1;"></line><line transform="translate(1207,0)" x2="0" y2="10" style="fill: none; stroke: #979797; stroke-width: 0.2; opacity: 1;"></line><line transform="translate(1228,0)" x2="0" y2="10" style="fill: none; stroke: #979797; stroke-width: 0.2; opacity: 1;"></line><line transform="translate(1249,0)" x2="0" y2="10" style="fill: none; stroke: #979797; stroke-width: 0.2; opacity: 1;"></line><line transform="translate(1270,0)" x2="0" y2="10" style="fill: none; stroke: #979797; stroke-width: 0.2; opacity: 1;"></line><line transform="translate(1291,0)" x2="0" y2="10" style="fill: none; stroke: #979797; stroke-width: 0.2; opacity: 1;"></line><line transform="translate(1312,0)" x2="0" y2="10" style="fill: none; stroke: #979797; stroke-width: 0.2; opacity: 1;"></line><line transform="translate(1333,0)" x2="0" y2="10" style="fill: none; stroke: #979797; stroke-width: 0.2; opacity: 1;"></line><line transform="translate(1354,0)" x2="0" y2="10" style="fill: none; stroke: #979797; stroke-width: 0.2; opacity: 1;"></line><line transform="translate(1375,0)" x2="0" y2="10" style="fill: none; stroke: #979797; stroke-width: 0.2; opacity: 1;"></line><line transform="translate(1396,0)" x2="0" y2="10" style="fill: none; stroke: #979797; stroke-width: 0.2; opacity: 1;"></line><line transform="translate(1417,0)" x2="0" y2="10" style="fill: none; stroke: #979797; stroke-width: 0.2; opacity: 1;"></line><line transform="translate(1438,0)" x2="0" y2="10" style="fill: none; stroke: #979797; stroke-width: 0.2; opacity: 1;"></line><line transform="translate(1459,0)" x2="0" y2="10" style="fill: none; stroke: #979797; stroke-width: 0.2; opacity: 1;"></line><line transform="translate(1480,0)" x2="0" y2="10" style="fill: none; stroke: #979797; stroke-width: 0.2; opacity: 1;"></line><line transform="translate(1501,0)" x2="0" y2="10" style="fill: none; stroke: #979797; stroke-width: 0.2; opacity: 1;"></line><line transform="translate(1522,0)" x2="0" y2="10" style="fill: none; stroke: #979797; stroke-width: 0.2; opacity: 1;"></line><line transform="translate(1543,0)" x2="0" y2="10" style="fill: none; stroke: #979797; stroke-width: 0.2; opacity: 1;"></line><line transform="translate(1564,0)" x2="0" y2="10" style="fill: none; stroke: #979797; stroke-width: 0.2; opacity: 1;"></line><line transform="translate(1585,0)" x2="0" y2="10" style="fill: none; stroke: #979797; stroke-width: 0.2; opacity: 1;"></line><line transform="translate(1606,0)" x2="0" y2="10" style="fill: none; stroke: #979797; stroke-width: 0.2; opacity: 1;"></line><line transform="translate(1627,0)" x2="0" y2="10" style="fill: none; stroke: #979797; stroke-width: 0.2; opacity: 1;"></line><line transform="translate(1648,0)" x2="0" y2="10" style="fill: none; stroke: #979797; stroke-width: 0.2; opacity: 1;"></line><line transform="translate(1669,0)" x2="0" y2="10" style="fill: none; stroke: #979797; stroke-width: 0.2; opacity: 1;"></line><line transform="translate(1690,0)" x2="0" y2="10" style="fill: none; stroke: #979797; stroke-width: 0.2; opacity: 1;"></line><line transform="translate(1711,0)" x2="0" y2="10" style="fill: none; stroke: #979797; stroke-width: 0.2; opacity: 1;"></line><line transform="translate(1732,0)" x2="0" y2="10" style="fill: none; stroke: #979797; stroke-width: 0.2; opacity: 1;"></line><line transform="translate(1753,0)" x2="0" y2="10" style="fill: none; stroke: #979797; stroke-width: 0.2; opacity: 1;"></line><line transform="translate(1774,0)" x2="0" y2="10" style="fill: none; stroke: #979797; stroke-width: 0.2; opacity: 1;"></line><line transform="translate(1795,0)" x2="0" y2="10" style="fill: none; stroke: #979797; stroke-width: 0.2; opacity: 1;"></line><line transform="translate(1816,0)" x2="0" y2="10" style="fill: none; stroke: #979797; stroke-width: 0.2; opacity: 1;"></line><line transform="translate(1837,0)" x2="0" y2="10" style="fill: none; stroke: #979797; stroke-width: 0.2; opacity: 1;"></line><line transform="translate(1858,0)" x2="0" y2="10" style="fill: none; stroke: #979797; stroke-width: 0.2; opacity: 1;"></line><line transform="translate(1879,0)" x2="0" y2="10" style="fill: none; stroke: #979797; stroke-width: 0.2; opacity: 1;"></line><line transform="translate(1900,0)" x2="0" y2="10" style="fill: none; stroke: #979797; stroke-width: 0.2; opacity: 1;"></line><line transform="translate(1921,0)" x2="0" y2="10" style="fill: none; stroke: #979797; stroke-width: 0.2; opacity: 1;"></line><line transform="translate(1942,0)" x2="0" y2="10" style="fill: none; stroke: #979797; stroke-width: 0.2; opacity: 1;"></line><line transform="translate(1963,0)" x2="0" y2="10" style="fill: none; stroke: #979797; stroke-width: 0.2; opacity: 1;"></line><line transform="translate(1984,0)" x2="0" y2="10" style="fill: none; stroke: #979797; stroke-width: 0.2; opacity: 1;"></line><line transform="translate(2005,0)" x2="0" y2="10" style="fill: none; stroke: #979797; stroke-width: 0.2; opacity: 1;"></line><line transform="translate(2026,0)" x2="0" y2="10" style="fill: none; stroke: #979797; stroke-width: 0.2; opacity: 1;"></line><line transform="translate(2047,0)" x2="0" y2="10" style="fill: none; stroke: #979797; stroke-width: 0.2; opacity: 1;"></line><line transform="translate(2068,0)" x2="0" y2="10" style="fill: none; stroke: #979797; stroke-width: 0.2; opacity: 1;"></line><line transform="translate(2089,0)" x2="0" y2="10" style="fill: none; stroke: #979797; stroke-width: 0.2; opacity: 1;"></line></g><g class="mark-text role-axis-label" style="pointer-events: none;"><text text-anchor="end" transform="translate(9.499999999999956,12) rotate(270) translate(0,3)" style="font-family: sans-serif; font-size: 10px; fill: #979797; opacity: 1;">2024-07-07</text><text text-anchor="end" transform="translate(30.499999999999957,12) rotate(270) translate(0,3)" style="font-family: sans-serif; font-size: 10px; fill: #979797; opacity: 1;">2024-07-08</text><text text-anchor="end" transform="translate(51.49999999999996,12) rotate(270) translate(0,3)" style="font-family: sans-serif; font-size: 10px; fill: #979797; opacity: 1;">2024-07-09</text><text text-anchor="end" transform="translate(72.49999999999996,12) rotate(270) translate(0,3)" style="font-family: sans-serif; font-size: 10px; fill: #979797; opacity: 1;">2024-07-10</text><text text-anchor="end" transform="translate(93.49999999999996,12) rotate(270) translate(0,3)" style="font-family: sans-serif; font-size: 10px; fill: #979797; opacity: 1;">2024-07-11</text><text text-anchor="end" transform="translate(114.49999999999996,12) rotate(270) translate(0,3)" style="font-family: sans-serif; font-size: 10px; fill: #979797; opacity: 1;">2024-07-12</text><text text-anchor="end" transform="translate(135.49999999999994,12) rotate(270) translate(0,3)" style="font-family: sans-serif; font-size: 10px; fill: #979797; opacity: 1;">2024-07-13</text><text text-anchor="end" transform="translate(156.49999999999994,12) rotate(270) translate(0,3)" style="font-family: sans-serif; font-size: 10px; fill: #979797; opacity: 1;">2024-07-14</text><text text-anchor="end" transform="translate(177.49999999999994,12) rotate(270) translate(0,3)" style="font-family: sans-serif; font-size: 10px; fill: #979797; opacity: 1;">2024-07-16</text><text text-anchor="end" transform="translate(198.49999999999994,12) rotate(270) translate(0,3)" style="font-family: sans-serif; font-size: 10px; fill: #979797; opacity: 1;">2024-07-17</text><text text-anchor="end" transform="translate(219.49999999999994,12) rotate(270) translate(0,3)" style="font-family: sans-serif; font-size: 10px; fill: #979797; opacity: 1;">2024-07-19</text><text text-anchor="end" transform="translate(240.49999999999994,12) rotate(270) translate(0,3)" style="font-family: sans-serif; font-size: 10px; fill: #979797; opacity: 1;">2024-07-20</text><text text-anchor="end" transform="translate(261.49999999999994,12) rotate(270) translate(0,3)" style="font-family: sans-serif; font-size: 10px; fill: #979797; opacity: 1;">2024-07-22</text><text text-anchor="end" transform="translate(282.49999999999994,12) rotate(270) translate(0,3)" style="font-family: sans-serif; font-size: 10px; fill: #979797; opacity: 1;">2024-07-23</text><text text-anchor="end" transform="translate(303.49999999999994,12) rotate(270) translate(0,3)" style="font-family: sans-serif; font-size: 10px; fill: #979797; opacity: 1;">2024-07-24</text><text text-anchor="end" transform="translate(324.49999999999994,12) rotate(270) translate(0,3)" style="font-family: sans-serif; font-size: 10px; fill: #979797; opacity: 1;">2024-07-25</text><text text-anchor="end" transform="translate(345.49999999999994,12) rotate(270) translate(0,3)" style="font-family: sans-serif; font-size: 10px; fill: #979797; opacity: 1;">2024-07-26</text><text text-anchor="end" transform="translate(366.49999999999994,12) rotate(270) translate(0,3)" style="font-family: sans-serif; font-size: 10px; fill: #979797; opacity: 1;">2024-07-28</text><text text-anchor="end" transform="translate(387.49999999999994,12) rotate(270) translate(0,3)" style="font-family: sans-serif; font-size: 10px; fill: #979797; opacity: 1;">2024-07-29</text><text text-anchor="end" transform="translate(408.49999999999994,12) rotate(270) translate(0,3)" style="font-family: sans-serif; font-size: 10px; fill: #979797; opacity: 1;">2024-08-12</text><text text-anchor="end" transform="translate(429.49999999999994,12) rotate(270) translate(0,3)" style="font-family: sans-serif; font-size: 10px; fill: #979797; opacity: 1;">2024-08-13</text><text text-anchor="end" transform="translate(450.49999999999994,12) rotate(270) translate(0,3)" style="font-family: sans-serif; font-size: 10px; fill: #979797; opacity: 1;">2024-08-14</text><text text-anchor="end" transform="translate(471.49999999999994,12) rotate(270) translate(0,3)" style="font-family: sans-serif; font-size: 10px; fill: #979797; opacity: 1;">2024-08-15</text><text text-anchor="end" transform="translate(492.49999999999994,12) rotate(270) translate(0,3)" style="font-family: sans-serif; font-size: 10px; fill: #979797; opacity: 1;">2024-08-16</text><text text-anchor="end" transform="translate(513.5,12) rotate(270) translate(0,3)" style="font-family: sans-serif; font-size: 10px; fill: #979797; opacity: 1;">2024-08-19</text><text text-anchor="end" transform="translate(534.5,12) rotate(270) translate(0,3)" style="font-family: sans-serif; font-size: 10px; fill: #979797; opacity: 1;">2024-08-20</text><text text-anchor="end" transform="translate(555.5,12) rotate(270) translate(0,3)" style="font-family: sans-serif; font-size: 10px; fill: #979797; opacity: 1;">2024-08-21</text><text text-anchor="end" transform="translate(576.5,12) rotate(270) translate(0,3)" style="font-family: sans-serif; font-size: 10px; fill: #979797; opacity: 1;">2024-08-22</text><text text-anchor="end" transform="translate(597.5,12) rotate(270) translate(0,3)" style="font-family: sans-serif; font-size: 10px; fill: #979797; opacity: 1;">2024-08-23</text><text text-anchor="end" transform="translate(618.5,12) rotate(270) translate(0,3)" style="font-family: sans-serif; font-size: 10px; fill: #979797; opacity: 1;">2024-08-24</text><text text-anchor="end" transform="translate(639.5,12) rotate(270) translate(0,3)" style="font-family: sans-serif; font-size: 10px; fill: #979797; opacity: 1;">2024-08-25</text><text text-anchor="end" transform="translate(660.5,12) rotate(270) translate(0,3)" style="font-family: sans-serif; font-size: 10px; fill: #979797; opacity: 1;">2024-08-26</text><text text-anchor="end" transform="translate(681.5,12) rotate(270) translate(0,3)" style="font-family: sans-serif; font-size: 10px; fill: #979797; opacity: 1;">2024-08-27</text><text text-anchor="end" transform="translate(702.5,12) rotate(270) translate(0,3)" style="font-family: sans-serif; font-size: 10px; fill: #979797; opacity: 1;">2024-08-28</text><text text-anchor="end" transform="translate(723.5,12) rotate(270) translate(0,3)" style="font-family: sans-serif; font-size: 10px; fill: #979797; opacity: 1;">2024-08-29</text><text text-anchor="end" transform="translate(744.5,12) rotate(270) translate(0,3)" style="font-family: sans-serif; font-size: 10px; fill: #979797; opacity: 1;">2024-08-30</text><text text-anchor="end" transform="translate(765.5,12) rotate(270) translate(0,3)" style="font-family: sans-serif; font-size: 10px; fill: #979797; opacity: 1;">2024-08-31</text><text text-anchor="end" transform="translate(786.5,12) rotate(270) translate(0,3)" style="font-family: sans-serif; font-size: 10px; fill: #979797; opacity: 1;">2024-09-01</text><text text-anchor="end" transform="translate(807.5,12) rotate(270) translate(0,3)" style="font-family: sans-serif; font-size: 10px; fill: #979797; opacity: 1;">2024-09-02</text><text text-anchor="end" transform="translate(828.5,12) rotate(270) translate(0,3)" style="font-family: sans-serif; font-size: 10px; fill: #979797; opacity: 1;">2024-09-03</text><text text-anchor="end" transform="translate(849.5,12) rotate(270) translate(0,3)" style="font-family: sans-serif; font-size: 10px; fill: #979797; opacity: 1;">2024-09-04</text><text text-anchor="end" transform="translate(870.5,12) rotate(270) translate(0,3)" style="font-family: sans-serif; font-size: 10px; fill: #979797; opacity: 1;">2024-09-05</text><text text-anchor="end" transform="translate(891.5,12) rotate(270) translate(0,3)" style="font-family: sans-serif; font-size: 10px; fill: #979797; opacity: 1;">2024-09-07</text><text text-anchor="end" transform="translate(912.5,12) rotate(270) translate(0,3)" style="font-family: sans-serif; font-size: 10px; fill: #979797; opacity: 1;">2024-09-09</text><text text-anchor="end" transform="translate(933.5,12) rotate(270) translate(0,3)" style="font-family: sans-serif; font-size: 10px; fill: #979797; opacity: 1;">2024-09-10</text><text text-anchor="end" transform="translate(954.5,12) rotate(270) translate(0,3)" style="font-family: sans-serif; font-size: 10px; fill: #979797; opacity: 1;">2024-09-11</text><text text-anchor="end" transform="translate(975.5,12) rotate(270) translate(0,3)" style="font-family: sans-serif; font-size: 10px; fill: #979797; opacity: 1;">2024-09-12</text><text text-anchor="end" transform="translate(996.5,12) rotate(270) translate(0,3)" style="font-family: sans-serif; font-size: 10px; fill: #979797; opacity: 1;">2024-09-13</text><text text-anchor="end" transform="translate(1017.5,12) rotate(270) translate(0,3)" style="font-family: sans-serif; font-size: 10px; fill: #979797; opacity: 1;">2024-09-14</text><text text-anchor="end" transform="translate(1038.5,12) rotate(270) translate(0,3)" style="font-family: sans-serif; font-size: 10px; fill: #979797; opacity: 1;">2024-09-15</text><text text-anchor="end" transform="translate(1059.5,12) rotate(270) translate(0,3)" style="font-family: sans-serif; font-size: 10px; fill: #979797; opacity: 1;">2024-09-16</text><text text-anchor="end" transform="translate(1080.5,12) rotate(270) translate(0,3)" style="font-family: sans-serif; font-size: 10px; fill: #979797; opacity: 1;">2024-09-17</text><text text-anchor="end" transform="translate(1101.5,12) rotate(270) translate(0,3)" style="font-family: sans-serif; font-size: 10px; fill: #979797; opacity: 1;">2024-09-18</text><text text-anchor="end" transform="translate(1122.5,12) rotate(270) translate(0,3)" style="font-family: sans-serif; font-size: 10px; fill: #979797; opacity: 1;">2024-09-19</text><text text-anchor="end" transform="translate(1143.5,12) rotate(270) translate(0,3)" style="font-family: sans-serif; font-size: 10px; fill: #979797; opacity: 1;">2024-09-20</text><text text-anchor="end" transform="translate(1164.5,12) rotate(270) translate(0,3)" style="font-family: sans-serif; font-size: 10px; fill: #979797; opacity: 1;">2024-09-21</text><text text-anchor="end" transform="translate(1185.5,12) rotate(270) translate(0,3)" style="font-family: sans-serif; font-size: 10px; fill: #979797; opacity: 1;">2024-09-22</text><text text-anchor="end" transform="translate(1206.5,12) rotate(270) translate(0,3)" style="font-family: sans-serif; font-size: 10px; fill: #979797; opacity: 1;">2024-09-23</text><text text-anchor="end" transform="translate(1227.5,12) rotate(270) translate(0,3)" style="font-family: sans-serif; font-size: 10px; fill: #979797; opacity: 1;">2024-09-24</text><text text-anchor="end" transform="translate(1248.5,12) rotate(270) translate(0,3)" style="font-family: sans-serif; font-size: 10px; fill: #979797; opacity: 1;">2024-09-25</text><text text-anchor="end" transform="translate(1269.5,12) rotate(270) translate(0,3)" style="font-family: sans-serif; font-size: 10px; fill: #979797; opacity: 1;">2024-09-26</text><text text-anchor="end" transform="translate(1290.5,12) rotate(270) translate(0,3)" style="font-family: sans-serif; font-size: 10px; fill: #979797; opacity: 1;">2024-12-12</text><text text-anchor="end" transform="translate(1311.5,12) rotate(270) translate(0,3)" style="font-family: sans-serif; font-size: 10px; fill: #979797; opacity: 1;">2024-12-13</text><text text-anchor="end" transform="translate(1332.5,12) rotate(270) translate(0,3)" style="font-family: sans-serif; font-size: 10px; fill: #979797; opacity: 1;">2024-12-16</text><text text-anchor="end" transform="translate(1353.5,12) rotate(270) translate(0,3)" style="font-family: sans-serif; font-size: 10px; fill: #979797; opacity: 1;">2024-12-17</text><text text-anchor="end" transform="translate(1374.5,12) rotate(270) translate(0,3)" style="font-family: sans-serif; font-size: 10px; fill: #979797; opacity: 1;">2024-12-18</text><text text-anchor="end" transform="translate(1395.5,12) rotate(270) translate(0,3)" style="font-family: sans-serif; font-size: 10px; fill: #979797; opacity: 1;">2024-12-19</text><text text-anchor="end" transform="translate(1416.5,12) rotate(270) translate(0,3)" style="font-family: sans-serif; font-size: 10px; fill: #979797; opacity: 1;">2024-12-20</text><text text-anchor="end" transform="translate(1437.5,12) rotate(270) translate(0,3)" style="font-family: sans-serif; font-size: 10px; fill: #979797; opacity: 1;">2024-12-21</text><text text-anchor="end" transform="translate(1458.5,12) rotate(270) translate(0,3)" style="font-family: sans-serif; font-size: 10px; fill: #979797; opacity: 1;">2024-12-22</text><text text-anchor="end" transform="translate(1479.5,12) rotate(270) translate(0,3)" style="font-family: sans-serif; font-size: 10px; fill: #979797; opacity: 1;">2024-12-23</text><text text-anchor="end" transform="translate(1500.5,12) rotate(270) translate(0,3)" style="font-family: sans-serif; font-size: 10px; fill: #979797; opacity: 1;">2024-12-26</text><text text-anchor="end" transform="translate(1521.5,12) rotate(270) translate(0,3)" style="font-family: sans-serif; font-size: 10px; fill: #979797; opacity: 1;">2024-12-28</text><text text-anchor="end" transform="translate(1542.5,12) rotate(270) translate(0,3)" style="font-family: sans-serif; font-size: 10px; fill: #979797; opacity: 1;">2024-12-29</text><text text-anchor="end" transform="translate(1563.5,12) rotate(270) translate(0,3)" style="font-family: sans-serif; font-size: 10px; fill: #979797; opacity: 1;">2024-12-30</text><text text-anchor="end" transform="translate(1584.5,12) rotate(270) translate(0,3)" style="font-family: sans-serif; font-size: 10px; fill: #979797; opacity: 1;">2024-12-31</text><text text-anchor="end" transform="translate(1605.5,12) rotate(270) translate(0,3)" style="font-family: sans-serif; font-size: 10px; fill: #979797; opacity: 1;">2025-01-02</text><text text-anchor="end" transform="translate(1626.5,12) rotate(270) translate(0,3)" style="font-family: sans-serif; font-size: 10px; fill: #979797; opacity: 1;">2025-01-04</text><text text-anchor="end" transform="translate(1647.5,12) rotate(270) translate(0,3)" style="font-family: sans-serif; font-size: 10px; fill: #979797; opacity: 1;">2025-01-05</text><text text-anchor="end" transform="translate(1668.5,12) rotate(270) translate(0,3)" style="font-family: sans-serif; font-size: 10px; fill: #979797; opacity: 1;">2025-01-06</text><text text-anchor="end" transform="translate(1689.5,12) rotate(270) translate(0,3)" style="font-family: sans-serif; font-size: 10px; fill: #979797; opacity: 1;">2025-01-07</text><text text-anchor="end" transform="translate(1710.5,12) rotate(270) translate(0,3)" style="font-family: sans-serif; font-size: 10px; fill: #979797; opacity: 1;">2025-01-08</text><text text-anchor="end" transform="translate(1731.5,12) rotate(270) translate(0,3)" style="font-family: sans-serif; font-size: 10px; fill: #979797; opacity: 1;">2025-01-09</text><text text-anchor="end" transform="translate(1752.5,12) rotate(270) translate(0,3)" style="font-family: sans-serif; font-size: 10px; fill: #979797; opacity: 1;">2025-01-10</text><text text-anchor="end" transform="translate(1773.5,12) rotate(270) translate(0,3)" style="font-family: sans-serif; font-size: 10px; fill: #979797; opacity: 1;">2025-01-11</text><text text-anchor="end" transform="translate(1794.5,12) rotate(270) translate(0,3)" style="font-family: sans-serif; font-size: 10px; fill: #979797; opacity: 1;">2025-01-12</text><text text-anchor="end" transform="translate(1815.5,12) rotate(270) translate(0,3)" style="font-family: sans-serif; font-size: 10px; fill: #979797; opacity: 1;">2025-01-13</text><text text-anchor="end" transform="translate(1836.5,12) rotate(270) translate(0,3)" style="font-family: sans-serif; font-size: 10px; fill: #979797; opacity: 1;">2025-01-14</text><text text-anchor="end" transform="translate(1857.5,12) rotate(270) translate(0,3)" style="font-family: sans-serif; font-size: 10px; fill: #979797; opacity: 1;">2025-01-15</text><text text-anchor="end" transform="translate(1878.5,12) rotate(270) translate(0,3)" style="font-family: sans-serif; font-size: 10px; fill: #979797; opacity: 1;">2025-01-16</text><text text-anchor="end" transform="translate(1899.5,12) rotate(270) translate(0,3)" style="font-family: sans-serif; font-size: 10px; fill: #979797; opacity: 1;">2025-01-17</text><text text-anchor="end" transform="translate(1920.5,12) rotate(270) translate(0,3)" style="font-family: sans-serif; font-size: 10px; fill: #979797; opacity: 1;">2025-01-18</text><text text-anchor="end" transform="translate(1941.5,12) rotate(270) translate(0,3)" style="font-family: sans-serif; font-size: 10px; fill: #979797; opacity: 1;">2025-01-19</text><text text-anchor="end" transform="translate(1962.5,12) rotate(270) translate(0,3)" style="font-family: sans-serif; font-size: 10px; fill: #979797; opacity: 1;">2025-01-20</text><text text-anchor="end" transform="translate(1983.5,12) rotate(270) translate(0,3)" style="font-family: sans-serif; font-size: 10px; fill: #979797; opacity: 1;">2025-01-21</text><text text-anchor="end" transform="translate(2004.5,12) rotate(270) translate(0,3)" style="font-family: sans-serif; font-size: 10px; fill: #979797; opacity: 1;">2025-01-22</text><text text-anchor="end" transform="translate(2025.5,12) rotate(270) translate(0,3)" style="font-family: sans-serif; font-size: 10px; fill: #979797; opacity: 1;">2025-01-23</text><text text-anchor="end" transform="translate(2046.5,12) rotate(270) translate(0,3)" style="font-family: sans-serif; font-size: 10px; fill: #979797; opacity: 1;">2025-01-26</text><text text-anchor="end" transform="translate(2067.5,12) rotate(270) translate(0,3)" style="font-family: sans-serif; font-size: 10px; fill: #979797; opacity: 1;">2025-01-27</text><text text-anchor="end" transform="translate(2088.5,12) rotate(270) translate(0,3)" style="font-family: sans-serif; font-size: 10px; fill: #979797; opacity: 1;">2025-01-28</text></g><g class="mark-rule role-axis-domain" style="pointer-events: none;"><line transform="translate(0,0)" x2="2100" y2="0" style="fill: none; stroke: #979797; stroke-width: 0.5; opacity: 1;"></line></g><g class="mark-text role-axis-title" style="pointer-events: none;"><text text-anchor="middle" transform="translate(1050,77.15234375)" style="font-family: sans-serif; font-size: 11px; font-weight: bold; fill: #979797; opacity: 1;">day</text></g></g></g></g><g class="mark-group role-axis"><g transform="translate(0.5,0.5)"><path class="background" d="M0,0h0v0h0Z" style="pointer-events: none; fill: none;"></path><g><g class="mark-rule role-axis-tick" style="pointer-events: none;"><line transform="translate(0,200)" x2="0" y2="0" style="fill: none; stroke: #979797; stroke-width: 0.2; opacity: 1;"></line><line transform="translate(0,167)" x2="0" y2="0" style="fill: none; stroke: #979797; stroke-width: 0.2; opacity: 1;"></line><line transform="translate(0,133)" x2="0" y2="0" style="fill: none; stroke: #979797; stroke-width: 0.2; opacity: 1;"></line><line transform="translate(0,100)" x2="0" y2="0" style="fill: none; stroke: #979797; stroke-width: 0.2; opacity: 1;"></line><line transform="translate(0,67)" x2="0" y2="0" style="fill: none; stroke: #979797; stroke-width: 0.2; opacity: 1;"></line><line transform="translate(0,33)" x2="0" y2="0" style="fill: none; stroke: #979797; stroke-width: 0.2; opacity: 1;"></line><line transform="translate(0,0)" x2="0" y2="0" style="fill: none; stroke: #979797; stroke-width: 0.2; opacity: 1;"></line></g><g class="mark-text role-axis-label" style="pointer-events: none;"><text text-anchor="end" transform="translate(-2,203)" style="font-family: sans-serif; font-size: 10px; fill: #979797; opacity: 1;">0.00</text><text text-anchor="end" transform="translate(-2,169.66666666666666)" style="font-family: sans-serif; font-size: 10px; fill: #979797; opacity: 1;">0.05</text><text text-anchor="end" transform="translate(-2,136.33333333333331)" style="font-family: sans-serif; font-size: 10px; fill: #979797; opacity: 1;">0.10</text><text text-anchor="end" transform="translate(-2,103)" style="font-family: sans-serif; font-size: 10px; fill: #979797; opacity: 1;">0.15</text><text text-anchor="end" transform="translate(-2,69.66666666666666)" style="font-family: sans-serif; font-size: 10px; fill: #979797; opacity: 1;">0.20</text><text text-anchor="end" transform="translate(-2,36.333333333333314)" style="font-family: sans-serif; font-size: 10px; fill: #979797; opacity: 1;">0.25</text><text text-anchor="end" transform="translate(-2,3)" style="font-family: sans-serif; font-size: 10px; fill: #979797; opacity: 1;">0.30</text></g><g class="mark-text role-axis-title" style="pointer-events: none;"><text text-anchor="middle" transform="translate(-34,100) rotate(-90) translate(0,-2)" style="font-family: sans-serif; font-size: 11px; font-weight: bold; fill: #979797; opacity: 1;">daily_used_suggested_ratio</text></g></g></g></g></g></g></g></g></svg>