<svg class="marks" width="2254" height="298" viewBox="0 0 2254 298" version="1.1" xmlns="http://www.w3.org/2000/svg" xmlns:xlink="http://www.w3.org/1999/xlink"><rect width="2254" height="298" style="fill: #f9f9f9;"></rect><g transform="translate(52,11)"><g class="mark-group role-frame root"><g transform="translate(0,0)"><path class="background" d="M0.5,0.5h2100v200h-2100Z" style="fill: none; stroke: #ddd;"></path><g><g class="mark-group role-axis"><g transform="translate(0.5,0.5)"><path class="background" d="M0,0h0v0h0Z" style="pointer-events: none; fill: none;"></path><g><g class="mark-rule role-axis-grid" style="pointer-events: none;"><line transform="translate(0,200)" x2="2100" y2="0" style="fill: none; stroke: #ddd; stroke-width: 0.2; opacity: 1;"></line><line transform="translate(0,167)" x2="2100" y2="0" style="fill: none; stroke: #ddd; stroke-width: 0.2; opacity: 1;"></line><line transform="translate(0,133)" x2="2100" y2="0" style="fill: none; stroke: #ddd; stroke-width: 0.2; opacity: 1;"></line><line transform="translate(0,100)" x2="2100" y2="0" style="fill: none; stroke: #ddd; stroke-width: 0.2; opacity: 1;"></line><line transform="translate(0,67)" x2="2100" y2="0" style="fill: none; stroke: #ddd; stroke-width: 0.2; opacity: 1;"></line><line transform="translate(0,33)" x2="2100" y2="0" style="fill: none; stroke: #ddd; stroke-width: 0.2; opacity: 1;"></line><line transform="translate(0,0)" x2="2100" y2="0" style="fill: none; stroke: #ddd; stroke-width: 0.2; opacity: 1;"></line></g></g></g></g><g class="mark-rect role-mark marks"><path d="M1.0499999999999545,199.96666666666667h18.900000000000002v0.03333333333333144h-18.900000000000002Z" style="fill: #703c5c;"></path><path d="M22.049999999999955,140.3h18.900000000000002v22.599999999999994h-18.900000000000002Z" style="fill: #ab5787;"></path><path d="M22.049999999999955,162.9h18.900000000000002v12.966666666666669h-18.900000000000002Z" style="fill: #51b2e5;"></path><path d="M22.049999999999955,175.86666666666667h18.900000000000002v24.133333333333326h-18.900000000000002Z" style="fill: #703c5c;"></path><path d="M43.049999999999955,64.06666666666666h18.900000000000002v69.23333333333335h-18.900000000000002Z" style="fill: #ab5787;"></path><path d="M43.049999999999955,133.3h18.900000000000002v10.5h-18.900000000000002Z" style="fill: #51b2e5;"></path><path d="M43.049999999999955,143.8h18.900000000000002v56.19999999999999h-18.900000000000002Z" style="fill: #703c5c;"></path><path d="M64.04999999999995,120.86666666666666h18.900000000000002v44.56666666666668h-18.900000000000002Z" style="fill: #ab5787;"></path><path d="M64.04999999999995,165.43333333333334h18.900000000000002v2.2666666666666515h-18.900000000000002Z" style="fill: #51b2e5;"></path><path d="M64.04999999999995,167.7h18.900000000000002v32.30000000000001h-18.900000000000002Z" style="fill: #703c5c;"></path><path d="M85.04999999999995,11h18.900000000000002v78.16666666666666h-18.900000000000002Z" style="fill: #ab5787;"></path><path d="M85.04999999999995,89.16666666666666h18.900000000000002v35.366666666666674h-18.900000000000002Z" style="fill: #51b2e5;"></path><path d="M85.04999999999995,124.53333333333333h18.900000000000002v75.46666666666667h-18.900000000000002Z" style="fill: #703c5c;"></path><path d="M106.04999999999995,179.83333333333334h18.900000000000002v7.033333333333331h-18.900000000000002Z" style="fill: #ab5787;"></path><path d="M106.04999999999995,186.86666666666667h18.900000000000002v4.699999999999989h-18.900000000000002Z" style="fill: #51b2e5;"></path><path d="M106.04999999999995,191.56666666666666h18.900000000000002v8.433333333333337h-18.900000000000002Z" style="fill: #703c5c;"></path><path d="M127.04999999999995,171.86666666666667h18.900000000000002v12.900000000000006h-18.900000000000002Z" style="fill: #51b2e5;"></path><path d="M127.04999999999995,184.76666666666668h18.900000000000002v15.23333333333332h-18.900000000000002Z" style="fill: #703c5c;"></path><path d="M148.04999999999995,174.03333333333333h18.900000000000002v10.76666666666668h-18.900000000000002Z" style="fill: #ab5787;"></path><path d="M148.04999999999995,184.8h18.900000000000002v8h-18.900000000000002Z" style="fill: #51b2e5;"></path><path d="M148.04999999999995,192.8h18.900000000000002v7.199999999999989h-18.900000000000002Z" style="fill: #703c5c;"></path><path d="M169.04999999999995,171.13333333333333h18.900000000000002v2.933333333333337h-18.900000000000002Z" style="fill: #ab5787;"></path><path d="M169.04999999999995,174.06666666666666h18.900000000000002v13.5h-18.900000000000002Z" style="fill: #51b2e5;"></path><path d="M169.04999999999995,187.56666666666666h18.900000000000002v12.433333333333337h-18.900000000000002Z" style="fill: #703c5c;"></path><path d="M190.04999999999995,184.13333333333333h18.900000000000002v6.566666666666663h-18.900000000000002Z" style="fill: #51b2e5;"></path><path d="M190.04999999999995,190.7h18.900000000000002v9.300000000000011h-18.900000000000002Z" style="fill: #703c5c;"></path><path d="M211.04999999999995,195.83333333333334h18.900000000000002v1.299999999999983h-18.900000000000002Z" style="fill: #51b2e5;"></path><path d="M211.04999999999995,197.13333333333333h18.900000000000002v2.8666666666666742h-18.900000000000002Z" style="fill: #703c5c;"></path><path d="M232.04999999999995,191.96666666666667h18.900000000000002v8.033333333333331h-18.900000000000002Z" style="fill: #703c5c;"></path><path d="M253.04999999999995,185.7h18.900000000000002v14.300000000000011h-18.900000000000002Z" style="fill: #703c5c;"></path><path d="M274.04999999999995,173.46666666666667h18.900000000000002v26.53333333333333h-18.900000000000002Z" style="fill: #703c5c;"></path><path d="M295.04999999999995,189.23333333333335h18.900000000000002v10.766666666666652h-18.900000000000002Z" style="fill: #703c5c;"></path><path d="M316.04999999999995,195.13333333333333h18.900000000000002v4.866666666666674h-18.900000000000002Z" style="fill: #703c5c;"></path><path d="M337.04999999999995,158.2h18.900000000000002v41.80000000000001h-18.900000000000002Z" style="fill: #703c5c;"></path><path d="M358.04999999999995,198.13333333333333h18.900000000000002v1.8666666666666742h-18.900000000000002Z" style="fill: #703c5c;"></path><path d="M379.04999999999995,197.2h18.900000000000002v2.8000000000000114h-18.900000000000002Z" style="fill: #703c5c;"></path><path d="M400.04999999999995,182.43333333333334h18.900000000000002v3.2666666666666515h-18.900000000000002Z" style="fill: #51b2e5;"></path><path d="M400.04999999999995,185.7h18.900000000000002v14.300000000000011h-18.900000000000002Z" style="fill: #703c5c;"></path><path d="M421.04999999999995,168.03333333333333h18.900000000000002v15.5h-18.900000000000002Z" style="fill: #51b2e5;"></path><path d="M421.04999999999995,183.53333333333333h18.900000000000002v16.46666666666667h-18.900000000000002Z" style="fill: #703c5c;"></path><path d="M442.04999999999995,157.86666666666667h18.900000000000002v11.666666666666657h-18.900000000000002Z" style="fill: #51b2e5;"></path><path d="M442.04999999999995,169.53333333333333h18.900000000000002v30.46666666666667h-18.900000000000002Z" style="fill: #703c5c;"></path><path d="M463.04999999999995,181.4h18.900000000000002v8.133333333333326h-18.900000000000002Z" style="fill: #51b2e5;"></path><path d="M463.04999999999995,189.53333333333333h18.900000000000002v10.466666666666669h-18.900000000000002Z" style="fill: #703c5c;"></path><path d="M484.04999999999995,156.13333333333333h18.900000000000002v0.4000000000000057h-18.900000000000002Z" style="fill: #51b2e5;"></path><path d="M484.04999999999995,156.53333333333333h18.900000000000002v43.46666666666667h-18.900000000000002Z" style="fill: #703c5c;"></path><path d="M505.04999999999995,140.1h18.900000000000002v9.166666666666686h-18.900000000000002Z" style="fill: #51b2e5;"></path><path d="M505.04999999999995,149.26666666666668h18.900000000000002v50.73333333333332h-18.900000000000002Z" style="fill: #703c5c;"></path><path d="M526.05,139.23333333333335h18.900000000000002v60.76666666666665h-18.900000000000002Z" style="fill: #703c5c;"></path><path d="M547.05,145.43333333333334h18.900000000000002v15.266666666666652h-18.900000000000002Z" style="fill: #51b2e5;"></path><path d="M547.05,160.7h18.900000000000002v39.30000000000001h-18.900000000000002Z" style="fill: #703c5c;"></path><path d="M568.05,191.13333333333333h18.900000000000002v3.5h-18.900000000000002Z" style="fill: #51b2e5;"></path><path d="M568.05,194.63333333333333h18.900000000000002v5.366666666666674h-18.900000000000002Z" style="fill: #703c5c;"></path><path d="M589.05,133.86666666666667h18.900000000000002v25.299999999999983h-18.900000000000002Z" style="fill: #51b2e5;"></path><path d="M589.05,159.16666666666666h18.900000000000002v40.83333333333334h-18.900000000000002Z" style="fill: #703c5c;"></path><path d="M610.05,197.2h18.900000000000002v0.9333333333333371h-18.900000000000002Z" style="fill: #51b2e5;"></path><path d="M610.05,198.13333333333333h18.900000000000002v1.8666666666666742h-18.900000000000002Z" style="fill: #703c5c;"></path><path d="M631.05,184.56666666666666h18.900000000000002v7.366666666666674h-18.900000000000002Z" style="fill: #51b2e5;"></path><path d="M631.05,191.93333333333334h18.900000000000002v8.066666666666663h-18.900000000000002Z" style="fill: #703c5c;"></path><path d="M652.05,175.16666666666666h18.900000000000002v9.26666666666668h-18.900000000000002Z" style="fill: #51b2e5;"></path><path d="M652.05,184.43333333333334h18.900000000000002v15.566666666666663h-18.900000000000002Z" style="fill: #703c5c;"></path><path d="M673.05,160.26666666666665h18.900000000000002v13.600000000000023h-18.900000000000002Z" style="fill: #51b2e5;"></path><path d="M673.05,173.86666666666667h18.900000000000002v26.133333333333326h-18.900000000000002Z" style="fill: #703c5c;"></path><path d="M694.05,167.3h18.900000000000002v11.099999999999994h-18.900000000000002Z" style="fill: #51b2e5;"></path><path d="M694.05,178.4h18.900000000000002v21.599999999999994h-18.900000000000002Z" style="fill: #703c5c;"></path><path d="M715.05,153.46666666666667h18.900000000000002v16.299999999999983h-18.900000000000002Z" style="fill: #51b2e5;"></path><path d="M715.05,169.76666666666665h18.900000000000002v30.23333333333335h-18.900000000000002Z" style="fill: #703c5c;"></path><path d="M736.05,148.46666666666667h18.900000000000002v19.166666666666657h-18.900000000000002Z" style="fill: #51b2e5;"></path><path d="M736.05,167.63333333333333h18.900000000000002v32.366666666666674h-18.900000000000002Z" style="fill: #703c5c;"></path><path d="M757.05,190.23333333333335h18.900000000000002v4.366666666666646h-18.900000000000002Z" style="fill: #51b2e5;"></path><path d="M757.05,194.6h18.900000000000002v5.400000000000006h-18.900000000000002Z" style="fill: #703c5c;"></path><path d="M778.05,182.4h18.900000000000002v6.933333333333337h-18.900000000000002Z" style="fill: #51b2e5;"></path><path d="M778.05,189.33333333333334h18.900000000000002v10.666666666666657h-18.900000000000002Z" style="fill: #703c5c;"></path><path d="M799.05,187.93333333333334h18.900000000000002v8.266666666666652h-18.900000000000002Z" style="fill: #51b2e5;"></path><path d="M799.05,196.2h18.900000000000002v3.8000000000000114h-18.900000000000002Z" style="fill: #703c5c;"></path><path d="M820.05,104.53333333333333h18.900000000000002v32.133333333333354h-18.900000000000002Z" style="fill: #51b2e5;"></path><path d="M820.05,136.66666666666669h18.900000000000002v63.333333333333314h-18.900000000000002Z" style="fill: #703c5c;"></path><path d="M841.05,175.86666666666667h18.900000000000002v9.633333333333326h-18.900000000000002Z" style="fill: #51b2e5;"></path><path d="M841.05,185.5h18.900000000000002v14.5h-18.900000000000002Z" style="fill: #703c5c;"></path><path d="M862.05,186.56666666666666h18.900000000000002v4.866666666666674h-18.900000000000002Z" style="fill: #51b2e5;"></path><path d="M862.05,191.43333333333334h18.900000000000002v8.566666666666663h-18.900000000000002Z" style="fill: #703c5c;"></path><path d="M883.05,188.6h18.900000000000002v3.066666666666663h-18.900000000000002Z" style="fill: #51b2e5;"></path><path d="M883.05,191.66666666666666h18.900000000000002v8.333333333333343h-18.900000000000002Z" style="fill: #703c5c;"></path><path d="M904.05,179.43333333333334h18.900000000000002v10.599999999999994h-18.900000000000002Z" style="fill: #51b2e5;"></path><path d="M904.05,190.03333333333333h18.900000000000002v9.966666666666669h-18.900000000000002Z" style="fill: #703c5c;"></path><path d="M925.05,190.13333333333333h18.900000000000002v4.466666666666669h-18.900000000000002Z" style="fill: #51b2e5;"></path><path d="M925.05,194.6h18.900000000000002v5.400000000000006h-18.900000000000002Z" style="fill: #703c5c;"></path><path d="M946.05,161.43333333333334h18.900000000000002v8.533333333333331h-18.900000000000002Z" style="fill: #51b2e5;"></path><path d="M946.05,169.96666666666667h18.900000000000002v30.03333333333333h-18.900000000000002Z" style="fill: #703c5c;"></path><path d="M967.05,167.83333333333334h18.900000000000002v7.566666666666663h-18.900000000000002Z" style="fill: #51b2e5;"></path><path d="M967.05,175.4h18.900000000000002v24.599999999999994h-18.900000000000002Z" style="fill: #703c5c;"></path><path d="M988.05,188.43333333333334h18.900000000000002v3.1999999999999886h-18.900000000000002Z" style="fill: #51b2e5;"></path><path d="M988.05,191.63333333333333h18.900000000000002v8.366666666666674h-18.900000000000002Z" style="fill: #703c5c;"></path><path d="M1009.05,139.33333333333331h18.900000000000002v23.466666666666697h-18.900000000000002Z" style="fill: #51b2e5;"></path><path d="M1009.05,162.8h18.900000000000002v37.19999999999999h-18.900000000000002Z" style="fill: #703c5c;"></path><path d="M1030.05,190.26666666666668h18.900000000000002v4.066666666666663h-18.900000000000002Z" style="fill: #51b2e5;"></path><path d="M1030.05,194.33333333333334h18.900000000000002v5.666666666666657h-18.900000000000002Z" style="fill: #703c5c;"></path><path d="M1051.05,175.33333333333334h18.900000000000002v4.5h-18.900000000000002Z" style="fill: #51b2e5;"></path><path d="M1051.05,179.83333333333334h18.900000000000002v20.166666666666657h-18.900000000000002Z" style="fill: #703c5c;"></path><path d="M1072.05,134.83333333333334h18.900000000000002v18.333333333333314h-18.900000000000002Z" style="fill: #51b2e5;"></path><path d="M1072.05,153.16666666666666h18.900000000000002v46.83333333333334h-18.900000000000002Z" style="fill: #703c5c;"></path><path d="M1093.05,138.36666666666667h18.900000000000002v24.066666666666663h-18.900000000000002Z" style="fill: #51b2e5;"></path><path d="M1093.05,162.43333333333334h18.900000000000002v37.56666666666666h-18.900000000000002Z" style="fill: #703c5c;"></path><path d="M1114.05,166.66666666666669h18.900000000000002v11.599999999999994h-18.900000000000002Z" style="fill: #51b2e5;"></path><path d="M1114.05,178.26666666666668h18.900000000000002v21.73333333333332h-18.900000000000002Z" style="fill: #703c5c;"></path><path d="M1135.05,155.06666666666666h18.900000000000002v11.533333333333331h-18.900000000000002Z" style="fill: #51b2e5;"></path><path d="M1135.05,166.6h18.900000000000002v33.400000000000006h-18.900000000000002Z" style="fill: #703c5c;"></path><path d="M1156.05,186.06666666666666h18.900000000000002v6.5h-18.900000000000002Z" style="fill: #51b2e5;"></path><path d="M1156.05,192.56666666666666h18.900000000000002v7.433333333333337h-18.900000000000002Z" style="fill: #703c5c;"></path><path d="M1177.05,178.03333333333333h18.900000000000002v6.933333333333337h-18.900000000000002Z" style="fill: #51b2e5;"></path><path d="M1177.05,184.96666666666667h18.900000000000002v15.033333333333331h-18.900000000000002Z" style="fill: #703c5c;"></path><path d="M1198.05,146.9h18.900000000000002v20h-18.900000000000002Z" style="fill: #51b2e5;"></path><path d="M1198.05,166.9h18.900000000000002v33.099999999999994h-18.900000000000002Z" style="fill: #703c5c;"></path><path d="M1219.05,166.5h18.900000000000002v7.800000000000011h-18.900000000000002Z" style="fill: #51b2e5;"></path><path d="M1219.05,174.3h18.900000000000002v25.69999999999999h-18.900000000000002Z" style="fill: #703c5c;"></path><path d="M1240.05,176.93333333333334h18.900000000000002v4.73333333333332h-18.900000000000002Z" style="fill: #51b2e5;"></path><path d="M1240.05,181.66666666666666h18.900000000000002v18.333333333333343h-18.900000000000002Z" style="fill: #703c5c;"></path><path d="M1261.05,198.33333333333334h18.900000000000002v1.6666666666666572h-18.900000000000002Z" style="fill: #703c5c;"></path><path d="M1282.05,198h18.900000000000002v0.26666666666667993h-18.900000000000002Z" style="fill: #51b2e5;"></path><path d="M1282.05,198.26666666666668h18.900000000000002v1.73333333333332h-18.900000000000002Z" style="fill: #703c5c;"></path><path d="M1303.05,163.5h18.900000000000002v4.066666666666663h-18.900000000000002Z" style="fill: #51b2e5;"></path><path d="M1303.05,167.56666666666666h18.900000000000002v32.43333333333334h-18.900000000000002Z" style="fill: #703c5c;"></path><path d="M1324.05,171.06666666666666h18.900000000000002v11.833333333333343h-18.900000000000002Z" style="fill: #51b2e5;"></path><path d="M1324.05,182.9h18.900000000000002v17.099999999999994h-18.900000000000002Z" style="fill: #703c5c;"></path><path d="M1345.05,115.7h18.900000000000002v23.299999999999997h-18.900000000000002Z" style="fill: #51b2e5;"></path><path d="M1345.05,139h18.900000000000002v61h-18.900000000000002Z" style="fill: #703c5c;"></path><path d="M1366.05,146.7h18.900000000000002v26.80000000000001h-18.900000000000002Z" style="fill: #51b2e5;"></path><path d="M1366.05,173.5h18.900000000000002v26.5h-18.900000000000002Z" style="fill: #703c5c;"></path><path d="M1387.05,161.86666666666667h18.900000000000002v15.566666666666663h-18.900000000000002Z" style="fill: #51b2e5;"></path><path d="M1387.05,177.43333333333334h18.900000000000002v22.566666666666663h-18.900000000000002Z" style="fill: #703c5c;"></path><path d="M1408.05,192.13333333333333h18.900000000000002v4.333333333333343h-18.900000000000002Z" style="fill: #51b2e5;"></path><path d="M1408.05,196.46666666666667h18.900000000000002v3.5333333333333314h-18.900000000000002Z" style="fill: #703c5c;"></path><path d="M1429.05,196.56666666666666h18.900000000000002v1.9000000000000057h-18.900000000000002Z" style="fill: #51b2e5;"></path><path d="M1429.05,198.46666666666667h18.900000000000002v1.5333333333333314h-18.900000000000002Z" style="fill: #703c5c;"></path><path d="M1450.05,199.9h18.900000000000002v0.09999999999999432h-18.900000000000002Z" style="fill: #51b2e5;"></path><path d="M1471.05,184h18.900000000000002v6.566666666666663h-18.900000000000002Z" style="fill: #51b2e5;"></path><path d="M1471.05,190.56666666666666h18.900000000000002v9.433333333333337h-18.900000000000002Z" style="fill: #703c5c;"></path><path d="M1492.05,188.36666666666667h18.900000000000002v4.533333333333331h-18.900000000000002Z" style="fill: #51b2e5;"></path><path d="M1492.05,192.9h18.900000000000002v7.099999999999994h-18.900000000000002Z" style="fill: #703c5c;"></path><path d="M1513.05,186.63333333333333h18.900000000000002v5.533333333333331h-18.900000000000002Z" style="fill: #51b2e5;"></path><path d="M1513.05,192.16666666666666h18.900000000000002v7.833333333333343h-18.900000000000002Z" style="fill: #703c5c;"></path><path d="M1534.05,190.96666666666667h18.900000000000002v2.666666666666657h-18.900000000000002Z" style="fill: #51b2e5;"></path><path d="M1534.05,193.63333333333333h18.900000000000002v6.366666666666674h-18.900000000000002Z" style="fill: #703c5c;"></path><path d="M1555.05,170.66666666666666h18.900000000000002v13.466666666666669h-18.900000000000002Z" style="fill: #51b2e5;"></path><path d="M1555.05,184.13333333333333h18.900000000000002v15.866666666666674h-18.900000000000002Z" style="fill: #703c5c;"></path><path d="M1576.05,185.9h18.900000000000002v5.599999999999994h-18.900000000000002Z" style="fill: #51b2e5;"></path><path d="M1576.05,191.5h18.900000000000002v8.5h-18.900000000000002Z" style="fill: #703c5c;"></path><path d="M1597.05,138.3h18.900000000000002v29.799999999999983h-18.900000000000002Z" style="fill: #51b2e5;"></path><path d="M1597.05,168.1h18.900000000000002v31.900000000000006h-18.900000000000002Z" style="fill: #703c5c;"></path><path d="M1618.05,198.56666666666666h18.900000000000002v0.13333333333332575h-18.900000000000002Z" style="fill: #51b2e5;"></path><path d="M1618.05,198.7h18.900000000000002v1.3000000000000114h-18.900000000000002Z" style="fill: #703c5c;"></path><path d="M1639.05,184.93333333333334h18.900000000000002v7.866666666666674h-18.900000000000002Z" style="fill: #51b2e5;"></path><path d="M1639.05,192.8h18.900000000000002v7.199999999999989h-18.900000000000002Z" style="fill: #703c5c;"></path><path d="M1660.05,184.23333333333332h18.900000000000002v6.066666666666691h-18.900000000000002Z" style="fill: #51b2e5;"></path><path d="M1660.05,190.3h18.900000000000002v9.699999999999989h-18.900000000000002Z" style="fill: #703c5c;"></path><path d="M1681.05,169.73333333333335h18.900000000000002v11.666666666666657h-18.900000000000002Z" style="fill: #51b2e5;"></path><path d="M1681.05,181.4h18.900000000000002v18.599999999999994h-18.900000000000002Z" style="fill: #703c5c;"></path><path d="M1702.05,187.76666666666665h18.900000000000002v4.300000000000011h-18.900000000000002Z" style="fill: #51b2e5;"></path><path d="M1702.05,192.06666666666666h18.900000000000002v7.933333333333337h-18.900000000000002Z" style="fill: #703c5c;"></path><path d="M1723.05,138.46666666666667h18.900000000000002v12.466666666666669h-18.900000000000002Z" style="fill: #51b2e5;"></path><path d="M1723.05,150.93333333333334h18.900000000000002v49.06666666666666h-18.900000000000002Z" style="fill: #703c5c;"></path><path d="M1744.05,150.2h18.900000000000002v16.5h-18.900000000000002Z" style="fill: #51b2e5;"></path><path d="M1744.05,166.7h18.900000000000002v33.30000000000001h-18.900000000000002Z" style="fill: #703c5c;"></path><path d="M1765.05,192.2h18.900000000000002v2.1000000000000227h-18.900000000000002Z" style="fill: #51b2e5;"></path><path d="M1765.05,194.3h18.900000000000002v5.699999999999989h-18.900000000000002Z" style="fill: #703c5c;"></path><path d="M1786.05,195.26666666666668h18.900000000000002v3.2666666666666515h-18.900000000000002Z" style="fill: #51b2e5;"></path><path d="M1786.05,198.53333333333333h18.900000000000002v1.4666666666666686h-18.900000000000002Z" style="fill: #703c5c;"></path><path d="M1807.05,179.43333333333334h18.900000000000002v3h-18.900000000000002Z" style="fill: #51b2e5;"></path><path d="M1807.05,182.43333333333334h18.900000000000002v17.566666666666663h-18.900000000000002Z" style="fill: #703c5c;"></path><path d="M1828.05,148.26666666666665h18.900000000000002v16.200000000000017h-18.900000000000002Z" style="fill: #51b2e5;"></path><path d="M1828.05,164.46666666666667h18.900000000000002v35.53333333333333h-18.900000000000002Z" style="fill: #703c5c;"></path><path d="M1849.05,163.06666666666666h18.900000000000002v14.466666666666669h-18.900000000000002Z" style="fill: #51b2e5;"></path><path d="M1849.05,177.53333333333333h18.900000000000002v22.46666666666667h-18.900000000000002Z" style="fill: #703c5c;"></path><path d="M1870.05,120.5h18.900000000000002v21.46666666666667h-18.900000000000002Z" style="fill: #51b2e5;"></path><path d="M1870.05,141.96666666666667h18.900000000000002v58.03333333333333h-18.900000000000002Z" style="fill: #703c5c;"></path><path d="M1891.05,128.43333333333334h18.900000000000002v26.19999999999999h-18.900000000000002Z" style="fill: #51b2e5;"></path><path d="M1891.05,154.63333333333333h18.900000000000002v45.366666666666674h-18.900000000000002Z" style="fill: #703c5c;"></path><path d="M1912.05,195.6h18.900000000000002v1.5333333333333314h-18.900000000000002Z" style="fill: #51b2e5;"></path><path d="M1912.05,197.13333333333333h18.900000000000002v2.8666666666666742h-18.900000000000002Z" style="fill: #703c5c;"></path><path d="M1933.05,192.56666666666666h18.900000000000002v3.566666666666663h-18.900000000000002Z" style="fill: #51b2e5;"></path><path d="M1933.05,196.13333333333333h18.900000000000002v3.8666666666666742h-18.900000000000002Z" style="fill: #703c5c;"></path><path d="M1954.05,160.1h18.900000000000002v10.233333333333348h-18.900000000000002Z" style="fill: #51b2e5;"></path><path d="M1954.05,170.33333333333334h18.900000000000002v29.666666666666657h-18.900000000000002Z" style="fill: #703c5c;"></path><path d="M1975.05,130.46666666666667h18.900000000000002v25.066666666666663h-18.900000000000002Z" style="fill: #51b2e5;"></path><path d="M1975.05,155.53333333333333h18.900000000000002v44.46666666666667h-18.900000000000002Z" style="fill: #703c5c;"></path><path d="M1996.05,184.83333333333334h18.900000000000002v7.533333333333331h-18.900000000000002Z" style="fill: #51b2e5;"></path><path d="M1996.05,192.36666666666667h18.900000000000002v7.633333333333326h-18.900000000000002Z" style="fill: #703c5c;"></path><path d="M2017.05,199.83333333333334h18.900000000000002v0.1666666666666572h-18.900000000000002Z" style="fill: #51b2e5;"></path><path d="M2038.05,190.6h18.900000000000002v2.3000000000000114h-18.900000000000002Z" style="fill: #51b2e5;"></path><path d="M2038.05,192.9h18.900000000000002v7.099999999999994h-18.900000000000002Z" style="fill: #703c5c;"></path><path d="M2059.05,195.1h18.900000000000002v0.5666666666666629h-18.900000000000002Z" style="fill: #51b2e5;"></path><path d="M2059.05,195.66666666666666h18.900000000000002v4.333333333333343h-18.900000000000002Z" style="fill: #703c5c;"></path><path d="M2080.05,183.73333333333335h18.900000000000002v4.299999999999983h-18.900000000000002Z" style="fill: #51b2e5;"></path><path d="M2080.05,188.03333333333333h18.900000000000002v11.966666666666669h-18.900000000000002Z" style="fill: #703c5c;"></path></g><g class="mark-group role-legend"><g transform="translate(2118,0)"><path class="background" d="M0,0h79v62h-79Z" style="pointer-events: none; fill: none;"></path><g><g class="mark-group role-legend-entry"><g transform="translate(1,17)"><path class="background" d="M0,0h0v0h0Z" style="pointer-events: none; fill: none;"></path><g><g class="mark-group role-scope"><g transform="translate(0,0)"><path class="background" d="M0,0h76.5322265625v11.5h-76.5322265625Z" style="pointer-events: none; fill: none; opacity: 1;"></path><g><g class="mark-symbol role-legend-symbol" style="pointer-events: none;"><path transform="translate(5.5,5.5)" d="M-2.7386127875258306,-2.7386127875258306h5.477225575051661v5.477225575051661h-5.477225575051661Z" style="fill: #ab5787; stroke-width: 1.5; opacity: 1;"></path></g><g class="mark-text role-legend-label" style="pointer-events: none;"><text text-anchor="start" transform="translate(15,8.5)" style="font-family: sans-serif; font-size: 11px; fill: #000; opacity: 1;">codeium</text></g></g></g><g transform="translate(0,16)"><path class="background" d="M0,0h76.5322265625v11.5h-76.5322265625Z" style="pointer-events: none; fill: none; opacity: 1;"></path><g><g class="mark-symbol role-legend-symbol" style="pointer-events: none;"><path transform="translate(5.5,5.5)" d="M-2.7386127875258306,-2.7386127875258306h5.477225575051661v5.477225575051661h-5.477225575051661Z" style="fill: #51b2e5; stroke-width: 1.5; opacity: 1;"></path></g><g class="mark-text role-legend-label" style="pointer-events: none;"><text text-anchor="start" transform="translate(15,8.5)" style="font-family: sans-serif; font-size: 11px; fill: #000; opacity: 1;">copilot</text></g></g></g><g transform="translate(0,32)"><path class="background" d="M0,0h76.5322265625v11.5h-76.5322265625Z" style="pointer-events: none; fill: none; opacity: 1;"></path><g><g class="mark-symbol role-legend-symbol" style="pointer-events: none;"><path transform="translate(5.5,5.5)" d="M-2.7386127875258306,-2.7386127875258306h5.477225575051661v5.477225575051661h-5.477225575051661Z" style="fill: #703c5c; stroke-width: 1.5; opacity: 1;"></path></g><g class="mark-text role-legend-label" style="pointer-events: none;"><text text-anchor="start" transform="translate(15,8.5)" style="font-family: sans-serif; font-size: 11px; fill: #000; opacity: 1;">supermaven</text></g></g></g></g></g></g></g><g class="mark-text role-legend-title" style="pointer-events: none;"><text text-anchor="start" transform="translate(1,10)" style="font-family: sans-serif; font-size: 11px; font-weight: bold; fill: #000; opacity: 1;">source_name</text></g></g></g></g><g class="mark-group role-axis"><g transform="translate(0.5,200.5)"><path class="background" d="M0,0h0v0h0Z" style="pointer-events: none; fill: none;"></path><g><g class="mark-rule role-axis-tick" style="pointer-events: none;"><line transform="translate(9,0)" x2="0" y2="10" style="fill: none; stroke: #979797; stroke-width: 0.2; opacity: 1;"></line><line transform="translate(30,0)" x2="0" y2="10" style="fill: none; stroke: #979797; stroke-width: 0.2; opacity: 1;"></line><line transform="translate(51,0)" x2="0" y2="10" style="fill: none; stroke: #979797; stroke-width: 0.2; opacity: 1;"></line><line transform="translate(72,0)" x2="0" y2="10" style="fill: none; stroke: #979797; stroke-width: 0.2; opacity: 1;"></line><line transform="translate(93,0)" x2="0" y2="10" style="fill: none; stroke: #979797; stroke-width: 0.2; opacity: 1;"></line><line transform="translate(114,0)" x2="0" y2="10" style="fill: none; stroke: #979797; stroke-width: 0.2; opacity: 1;"></line><line transform="translate(135,0)" x2="0" y2="10" style="fill: none; stroke: #979797; stroke-width: 0.2; opacity: 1;"></line><line transform="translate(156,0)" x2="0" y2="10" style="fill: none; stroke: #979797; stroke-width: 0.2; opacity: 1;"></line><line transform="translate(177,0)" x2="0" y2="10" style="fill: none; stroke: #979797; stroke-width: 0.2; opacity: 1;"></line><line transform="translate(198,0)" x2="0" y2="10" style="fill: none; stroke: #979797; stroke-width: 0.2; opacity: 1;"></line><line transform="translate(219,0)" x2="0" y2="10" style="fill: none; stroke: #979797; stroke-width: 0.2; opacity: 1;"></line><line transform="translate(240,0)" x2="0" y2="10" style="fill: none; stroke: #979797; stroke-width: 0.2; opacity: 1;"></line><line transform="translate(261,0)" x2="0" y2="10" style="fill: none; stroke: #979797; stroke-width: 0.2; opacity: 1;"></line><line transform="translate(282,0)" x2="0" y2="10" style="fill: none; stroke: #979797; stroke-width: 0.2; opacity: 1;"></line><line transform="translate(303,0)" x2="0" y2="10" style="fill: none; stroke: #979797; stroke-width: 0.2; opacity: 1;"></line><line transform="translate(324,0)" x2="0" y2="10" style="fill: none; stroke: #979797; stroke-width: 0.2; opacity: 1;"></line><line transform="translate(345,0)" x2="0" y2="10" style="fill: none; stroke: #979797; stroke-width: 0.2; opacity: 1;"></line><line transform="translate(366,0)" x2="0" y2="10" style="fill: none; stroke: #979797; stroke-width: 0.2; opacity: 1;"></line><line transform="translate(387,0)" x2="0" y2="10" style="fill: none; stroke: #979797; stroke-width: 0.2; opacity: 1;"></line><line transform="translate(408,0)" x2="0" y2="10" style="fill: none; stroke: #979797; stroke-width: 0.2; opacity: 1;"></line><line transform="translate(429,0)" x2="0" y2="10" style="fill: none; stroke: #979797; stroke-width: 0.2; opacity: 1;"></line><line transform="translate(450,0)" x2="0" y2="10" style="fill: none; stroke: #979797; stroke-width: 0.2; opacity: 1;"></line><line transform="translate(471,0)" x2="0" y2="10" style="fill: none; stroke: #979797; stroke-width: 0.2; opacity: 1;"></line><line transform="translate(492,0)" x2="0" y2="10" style="fill: none; stroke: #979797; stroke-width: 0.2; opacity: 1;"></line><line transform="translate(514,0)" x2="0" y2="10" style="fill: none; stroke: #979797; stroke-width: 0.2; opacity: 1;"></line><line transform="translate(535,0)" x2="0" y2="10" style="fill: none; stroke: #979797; stroke-width: 0.2; opacity: 1;"></line><line transform="translate(556,0)" x2="0" y2="10" style="fill: none; stroke: #979797; stroke-width: 0.2; opacity: 1;"></line><line transform="translate(577,0)" x2="0" y2="10" style="fill: none; stroke: #979797; stroke-width: 0.2; opacity: 1;"></line><line transform="translate(598,0)" x2="0" y2="10" style="fill: none; stroke: #979797; stroke-width: 0.2; opacity: 1;"></line><line transform="translate(619,0)" x2="0" y2="10" style="fill: none; stroke: #979797; stroke-width: 0.2; opacity: 1;"></line><line transform="translate(640,0)" x2="0" y2="10" style="fill: none; stroke: #979797; stroke-width: 0.2; opacity: 1;"></line><line transform="translate(661,0)" x2="0" y2="10" style="fill: none; stroke: #979797; stroke-width: 0.2; opacity: 1;"></line><line transform="translate(682,0)" x2="0" y2="10" style="fill: none; stroke: #979797; stroke-width: 0.2; opacity: 1;"></line><line transform="translate(703,0)" x2="0" y2="10" style="fill: none; stroke: #979797; stroke-width: 0.2; opacity: 1;"></line><line transform="translate(724,0)" x2="0" y2="10" style="fill: none; stroke: #979797; stroke-width: 0.2; opacity: 1;"></line><line transform="translate(745,0)" x2="0" y2="10" style="fill: none; stroke: #979797; stroke-width: 0.2; opacity: 1;"></line><line transform="translate(766,0)" x2="0" y2="10" style="fill: none; stroke: #979797; stroke-width: 0.2; opacity: 1;"></line><line transform="translate(787,0)" x2="0" y2="10" style="fill: none; stroke: #979797; stroke-width: 0.2; opacity: 1;"></line><line transform="translate(808,0)" x2="0" y2="10" style="fill: none; stroke: #979797; stroke-width: 0.2; opacity: 1;"></line><line transform="translate(829,0)" x2="0" y2="10" style="fill: none; stroke: #979797; stroke-width: 0.2; opacity: 1;"></line><line transform="translate(850,0)" x2="0" y2="10" style="fill: none; stroke: #979797; stroke-width: 0.2; opacity: 1;"></line><line transform="translate(871,0)" x2="0" y2="10" style="fill: none; stroke: #979797; stroke-width: 0.2; opacity: 1;"></line><line transform="translate(892,0)" x2="0" y2="10" style="fill: none; stroke: #979797; stroke-width: 0.2; opacity: 1;"></line><line transform="translate(913,0)" x2="0" y2="10" style="fill: none; stroke: #979797; stroke-width: 0.2; opacity: 1;"></line><line transform="translate(934,0)" x2="0" y2="10" style="fill: none; stroke: #979797; stroke-width: 0.2; opacity: 1;"></line><line transform="translate(955,0)" x2="0" y2="10" style="fill: none; stroke: #979797; stroke-width: 0.2; opacity: 1;"></line><line transform="translate(976,0)" x2="0" y2="10" style="fill: none; stroke: #979797; stroke-width: 0.2; opacity: 1;"></line><line transform="translate(997,0)" x2="0" y2="10" style="fill: none; stroke: #979797; stroke-width: 0.2; opacity: 1;"></line><line transform="translate(1018,0)" x2="0" y2="10" style="fill: none; stroke: #979797; stroke-width: 0.2; opacity: 1;"></line><line transform="translate(1039,0)" x2="0" y2="10" style="fill: none; stroke: #979797; stroke-width: 0.2; opacity: 1;"></line><line transform="translate(1060,0)" x2="0" y2="10" style="fill: none; stroke: #979797; stroke-width: 0.2; opacity: 1;"></line><line transform="translate(1081,0)" x2="0" y2="10" style="fill: none; stroke: #979797; stroke-width: 0.2; opacity: 1;"></line><line transform="translate(1102,0)" x2="0" y2="10" style="fill: none; stroke: #979797; stroke-width: 0.2; opacity: 1;"></line><line transform="translate(1123,0)" x2="0" y2="10" style="fill: none; stroke: #979797; stroke-width: 0.2; opacity: 1;"></line><line transform="translate(1144,0)" x2="0" y2="10" style="fill: none; stroke: #979797; stroke-width: 0.2; opacity: 1;"></line><line transform="translate(1165,0)" x2="0" y2="10" style="fill: none; stroke: #979797; stroke-width: 0.2; opacity: 1;"></line><line transform="translate(1186,0)" x2="0" y2="10" style="fill: none; stroke: #979797; stroke-width: 0.2; opacity: 1;"></line><line transform="translate(1207,0)" x2="0" y2="10" style="fill: none; stroke: #979797; stroke-width: 0.2; opacity: 1;"></line><line transform="translate(1228,0)" x2="0" y2="10" style="fill: none; stroke: #979797; stroke-width: 0.2; opacity: 1;"></line><line transform="translate(1249,0)" x2="0" y2="10" style="fill: none; stroke: #979797; stroke-width: 0.2; opacity: 1;"></line><line transform="translate(1270,0)" x2="0" y2="10" style="fill: none; stroke: #979797; stroke-width: 0.2; opacity: 1;"></line><line transform="translate(1291,0)" x2="0" y2="10" style="fill: none; stroke: #979797; stroke-width: 0.2; opacity: 1;"></line><line transform="translate(1312,0)" x2="0" y2="10" style="fill: none; stroke: #979797; stroke-width: 0.2; opacity: 1;"></line><line transform="translate(1333,0)" x2="0" y2="10" style="fill: none; stroke: #979797; stroke-width: 0.2; opacity: 1;"></line><line transform="translate(1354,0)" x2="0" y2="10" style="fill: none; stroke: #979797; stroke-width: 0.2; opacity: 1;"></line><line transform="translate(1375,0)" x2="0" y2="10" style="fill: none; stroke: #979797; stroke-width: 0.2; opacity: 1;"></line><line transform="translate(1396,0)" x2="0" y2="10" style="fill: none; stroke: #979797; stroke-width: 0.2; opacity: 1;"></line><line transform="translate(1417,0)" x2="0" y2="10" style="fill: none; stroke: #979797; stroke-width: 0.2; opacity: 1;"></line><line transform="translate(1438,0)" x2="0" y2="10" style="fill: none; stroke: #979797; stroke-width: 0.2; opacity: 1;"></line><line transform="translate(1459,0)" x2="0" y2="10" style="fill: none; stroke: #979797; stroke-width: 0.2; opacity: 1;"></line><line transform="translate(1480,0)" x2="0" y2="10" style="fill: none; stroke: #979797; stroke-width: 0.2; opacity: 1;"></line><line transform="translate(1501,0)" x2="0" y2="10" style="fill: none; stroke: #979797; stroke-width: 0.2; opacity: 1;"></line><line transform="translate(1522,0)" x2="0" y2="10" style="fill: none; stroke: #979797; stroke-width: 0.2; opacity: 1;"></line><line transform="translate(1543,0)" x2="0" y2="10" style="fill: none; stroke: #979797; stroke-width: 0.2; opacity: 1;"></line><line transform="translate(1564,0)" x2="0" y2="10" style="fill: none; stroke: #979797; stroke-width: 0.2; opacity: 1;"></line><line transform="translate(1585,0)" x2="0" y2="10" style="fill: none; stroke: #979797; stroke-width: 0.2; opacity: 1;"></line><line transform="translate(1606,0)" x2="0" y2="10" style="fill: none; stroke: #979797; stroke-width: 0.2; opacity: 1;"></line><line transform="translate(1627,0)" x2="0" y2="10" style="fill: none; stroke: #979797; stroke-width: 0.2; opacity: 1;"></line><line transform="translate(1648,0)" x2="0" y2="10" style="fill: none; stroke: #979797; stroke-width: 0.2; opacity: 1;"></line><line transform="translate(1669,0)" x2="0" y2="10" style="fill: none; stroke: #979797; stroke-width: 0.2; opacity: 1;"></line><line transform="translate(1690,0)" x2="0" y2="10" style="fill: none; stroke: #979797; stroke-width: 0.2; opacity: 1;"></line><line transform="translate(1711,0)" x2="0" y2="10" style="fill: none; stroke: #979797; stroke-width: 0.2; opacity: 1;"></line><line transform="translate(1732,0)" x2="0" y2="10" style="fill: none; stroke: #979797; stroke-width: 0.2; opacity: 1;"></line><line transform="translate(1753,0)" x2="0" y2="10" style="fill: none; stroke: #979797; stroke-width: 0.2; opacity: 1;"></line><line transform="translate(1774,0)" x2="0" y2="10" style="fill: none; stroke: #979797; stroke-width: 0.2; opacity: 1;"></line><line transform="translate(1795,0)" x2="0" y2="10" style="fill: none; stroke: #979797; stroke-width: 0.2; opacity: 1;"></line><line transform="translate(1816,0)" x2="0" y2="10" style="fill: none; stroke: #979797; stroke-width: 0.2; opacity: 1;"></line><line transform="translate(1837,0)" x2="0" y2="10" style="fill: none; stroke: #979797; stroke-width: 0.2; opacity: 1;"></line><line transform="translate(1858,0)" x2="0" y2="10" style="fill: none; stroke: #979797; stroke-width: 0.2; opacity: 1;"></line><line transform="translate(1879,0)" x2="0" y2="10" style="fill: none; stroke: #979797; stroke-width: 0.2; opacity: 1;"></line><line transform="translate(1900,0)" x2="0" y2="10" style="fill: none; stroke: #979797; stroke-width: 0.2; opacity: 1;"></line><line transform="translate(1921,0)" x2="0" y2="10" style="fill: none; stroke: #979797; stroke-width: 0.2; opacity: 1;"></line><line transform="translate(1942,0)" x2="0" y2="10" style="fill: none; stroke: #979797; stroke-width: 0.2; opacity: 1;"></line><line transform="translate(1963,0)" x2="0" y2="10" style="fill: none; stroke: #979797; stroke-width: 0.2; opacity: 1;"></line><line transform="translate(1984,0)" x2="0" y2="10" style="fill: none; stroke: #979797; stroke-width: 0.2; opacity: 1;"></line><line transform="translate(2005,0)" x2="0" y2="10" style="fill: none; stroke: #979797; stroke-width: 0.2; opacity: 1;"></line><line transform="translate(2026,0)" x2="0" y2="10" style="fill: none; stroke: #979797; stroke-width: 0.2; opacity: 1;"></line><line transform="translate(2047,0)" x2="0" y2="10" style="fill: none; stroke: #979797; stroke-width: 0.2; opacity: 1;"></line><line transform="translate(2068,0)" x2="0" y2="10" style="fill: none; stroke: #979797; stroke-width: 0.2; opacity: 1;"></line><line transform="translate(2089,0)" x2="0" y2="10" style="fill: none; stroke: #979797; stroke-width: 0.2; opacity: 1;"></line></g><g class="mark-text role-axis-label" style="pointer-events: none;"><text text-anchor="end" transform="translate(9.499999999999956,12) rotate(270) translate(0,3)" style="font-family: sans-serif; font-size: 10px; fill: #979797; opacity: 1;">2024-07-07</text><text text-anchor="end" transform="translate(30.499999999999957,12) rotate(270) translate(0,3)" style="font-family: sans-serif; font-size: 10px; fill: #979797; opacity: 1;">2024-07-08</text><text text-anchor="end" transform="translate(51.49999999999996,12) rotate(270) translate(0,3)" style="font-family: sans-serif; font-size: 10px; fill: #979797; opacity: 1;">2024-07-09</text><text text-anchor="end" transform="translate(72.49999999999996,12) rotate(270) translate(0,3)" style="font-family: sans-serif; font-size: 10px; fill: #979797; opacity: 1;">2024-07-10</text><text text-anchor="end" transform="translate(93.49999999999996,12) rotate(270) translate(0,3)" style="font-family: sans-serif; font-size: 10px; fill: #979797; opacity: 1;">2024-07-11</text><text text-anchor="end" transform="translate(114.49999999999996,12) rotate(270) translate(0,3)" style="font-family: sans-serif; font-size: 10px; fill: #979797; opacity: 1;">2024-07-12</text><text text-anchor="end" transform="translate(135.49999999999994,12) rotate(270) translate(0,3)" style="font-family: sans-serif; font-size: 10px; fill: #979797; opacity: 1;">2024-07-13</text><text text-anchor="end" transform="translate(156.49999999999994,12) rotate(270) translate(0,3)" style="font-family: sans-serif; font-size: 10px; fill: #979797; opacity: 1;">2024-07-14</text><text text-anchor="end" transform="translate(177.49999999999994,12) rotate(270) translate(0,3)" style="font-family: sans-serif; font-size: 10px; fill: #979797; opacity: 1;">2024-07-16</text><text text-anchor="end" transform="translate(198.49999999999994,12) rotate(270) translate(0,3)" style="font-family: sans-serif; font-size: 10px; fill: #979797; opacity: 1;">2024-07-17</text><text text-anchor="end" transform="translate(219.49999999999994,12) rotate(270) translate(0,3)" style="font-family: sans-serif; font-size: 10px; fill: #979797; opacity: 1;">2024-07-19</text><text text-anchor="end" transform="translate(240.49999999999994,12) rotate(270) translate(0,3)" style="font-family: sans-serif; font-size: 10px; fill: #979797; opacity: 1;">2024-07-20</text><text text-anchor="end" transform="translate(261.49999999999994,12) rotate(270) translate(0,3)" style="font-family: sans-serif; font-size: 10px; fill: #979797; opacity: 1;">2024-07-22</text><text text-anchor="end" transform="translate(282.49999999999994,12) rotate(270) translate(0,3)" style="font-family: sans-serif; font-size: 10px; fill: #979797; opacity: 1;">2024-07-23</text><text text-anchor="end" transform="translate(303.49999999999994,12) rotate(270) translate(0,3)" style="font-family: sans-serif; font-size: 10px; fill: #979797; opacity: 1;">2024-07-24</text><text text-anchor="end" transform="translate(324.49999999999994,12) rotate(270) translate(0,3)" style="font-family: sans-serif; font-size: 10px; fill: #979797; opacity: 1;">2024-07-25</text><text text-anchor="end" transform="translate(345.49999999999994,12) rotate(270) translate(0,3)" style="font-family: sans-serif; font-size: 10px; fill: #979797; opacity: 1;">2024-07-26</text><text text-anchor="end" transform="translate(366.49999999999994,12) rotate(270) translate(0,3)" style="font-family: sans-serif; font-size: 10px; fill: #979797; opacity: 1;">2024-07-28</text><text text-anchor="end" transform="translate(387.49999999999994,12) rotate(270) translate(0,3)" style="font-family: sans-serif; font-size: 10px; fill: #979797; opacity: 1;">2024-07-29</text><text text-anchor="end" transform="translate(408.49999999999994,12) rotate(270) translate(0,3)" style="font-family: sans-serif; font-size: 10px; fill: #979797; opacity: 1;">2024-08-12</text><text text-anchor="end" transform="translate(429.49999999999994,12) rotate(270) translate(0,3)" style="font-family: sans-serif; font-size: 10px; fill: #979797; opacity: 1;">2024-08-13</text><text text-anchor="end" transform="translate(450.49999999999994,12) rotate(270) translate(0,3)" style="font-family: sans-serif; font-size: 10px; fill: #979797; opacity: 1;">2024-08-14</text><text text-anchor="end" transform="translate(471.49999999999994,12) rotate(270) translate(0,3)" style="font-family: sans-serif; font-size: 10px; fill: #979797; opacity: 1;">2024-08-15</text><text text-anchor="end" transform="translate(492.49999999999994,12) rotate(270) translate(0,3)" style="font-family: sans-serif; font-size: 10px; fill: #979797; opacity: 1;">2024-08-16</text><text text-anchor="end" transform="translate(513.5,12) rotate(270) translate(0,3)" style="font-family: sans-serif; font-size: 10px; fill: #979797; opacity: 1;">2024-08-19</text><text text-anchor="end" transform="translate(534.5,12) rotate(270) translate(0,3)" style="font-family: sans-serif; font-size: 10px; fill: #979797; opacity: 1;">2024-08-20</text><text text-anchor="end" transform="translate(555.5,12) rotate(270) translate(0,3)" style="font-family: sans-serif; font-size: 10px; fill: #979797; opacity: 1;">2024-08-21</text><text text-anchor="end" transform="translate(576.5,12) rotate(270) translate(0,3)" style="font-family: sans-serif; font-size: 10px; fill: #979797; opacity: 1;">2024-08-22</text><text text-anchor="end" transform="translate(597.5,12) rotate(270) translate(0,3)" style="font-family: sans-serif; font-size: 10px; fill: #979797; opacity: 1;">2024-08-23</text><text text-anchor="end" transform="translate(618.5,12) rotate(270) translate(0,3)" style="font-family: sans-serif; font-size: 10px; fill: #979797; opacity: 1;">2024-08-24</text><text text-anchor="end" transform="translate(639.5,12) rotate(270) translate(0,3)" style="font-family: sans-serif; font-size: 10px; fill: #979797; opacity: 1;">2024-08-25</text><text text-anchor="end" transform="translate(660.5,12) rotate(270) translate(0,3)" style="font-family: sans-serif; font-size: 10px; fill: #979797; opacity: 1;">2024-08-26</text><text text-anchor="end" transform="translate(681.5,12) rotate(270) translate(0,3)" style="font-family: sans-serif; font-size: 10px; fill: #979797; opacity: 1;">2024-08-27</text><text text-anchor="end" transform="translate(702.5,12) rotate(270) translate(0,3)" style="font-family: sans-serif; font-size: 10px; fill: #979797; opacity: 1;">2024-08-28</text><text text-anchor="end" transform="translate(723.5,12) rotate(270) translate(0,3)" style="font-family: sans-serif; font-size: 10px; fill: #979797; opacity: 1;">2024-08-29</text><text text-anchor="end" transform="translate(744.5,12) rotate(270) translate(0,3)" style="font-family: sans-serif; font-size: 10px; fill: #979797; opacity: 1;">2024-08-30</text><text text-anchor="end" transform="translate(765.5,12) rotate(270) translate(0,3)" style="font-family: sans-serif; font-size: 10px; fill: #979797; opacity: 1;">2024-08-31</text><text text-anchor="end" transform="translate(786.5,12) rotate(270) translate(0,3)" style="font-family: sans-serif; font-size: 10px; fill: #979797; opacity: 1;">2024-09-01</text><text text-anchor="end" transform="translate(807.5,12) rotate(270) translate(0,3)" style="font-family: sans-serif; font-size: 10px; fill: #979797; opacity: 1;">2024-09-02</text><text text-anchor="end" transform="translate(828.5,12) rotate(270) translate(0,3)" style="font-family: sans-serif; font-size: 10px; fill: #979797; opacity: 1;">2024-09-03</text><text text-anchor="end" transform="translate(849.5,12) rotate(270) translate(0,3)" style="font-family: sans-serif; font-size: 10px; fill: #979797; opacity: 1;">2024-09-04</text><text text-anchor="end" transform="translate(870.5,12) rotate(270) translate(0,3)" style="font-family: sans-serif; font-size: 10px; fill: #979797; opacity: 1;">2024-09-05</text><text text-anchor="end" transform="translate(891.5,12) rotate(270) translate(0,3)" style="font-family: sans-serif; font-size: 10px; fill: #979797; opacity: 1;">2024-09-07</text><text text-anchor="end" transform="translate(912.5,12) rotate(270) translate(0,3)" style="font-family: sans-serif; font-size: 10px; fill: #979797; opacity: 1;">2024-09-09</text><text text-anchor="end" transform="translate(933.5,12) rotate(270) translate(0,3)" style="font-family: sans-serif; font-size: 10px; fill: #979797; opacity: 1;">2024-09-10</text><text text-anchor="end" transform="translate(954.5,12) rotate(270) translate(0,3)" style="font-family: sans-serif; font-size: 10px; fill: #979797; opacity: 1;">2024-09-11</text><text text-anchor="end" transform="translate(975.5,12) rotate(270) translate(0,3)" style="font-family: sans-serif; font-size: 10px; fill: #979797; opacity: 1;">2024-09-12</text><text text-anchor="end" transform="translate(996.5,12) rotate(270) translate(0,3)" style="font-family: sans-serif; font-size: 10px; fill: #979797; opacity: 1;">2024-09-13</text><text text-anchor="end" transform="translate(1017.5,12) rotate(270) translate(0,3)" style="font-family: sans-serif; font-size: 10px; fill: #979797; opacity: 1;">2024-09-14</text><text text-anchor="end" transform="translate(1038.5,12) rotate(270) translate(0,3)" style="font-family: sans-serif; font-size: 10px; fill: #979797; opacity: 1;">2024-09-15</text><text text-anchor="end" transform="translate(1059.5,12) rotate(270) translate(0,3)" style="font-family: sans-serif; font-size: 10px; fill: #979797; opacity: 1;">2024-09-16</text><text text-anchor="end" transform="translate(1080.5,12) rotate(270) translate(0,3)" style="font-family: sans-serif; font-size: 10px; fill: #979797; opacity: 1;">2024-09-17</text><text text-anchor="end" transform="translate(1101.5,12) rotate(270) translate(0,3)" style="font-family: sans-serif; font-size: 10px; fill: #979797; opacity: 1;">2024-09-18</text><text text-anchor="end" transform="translate(1122.5,12) rotate(270) translate(0,3)" style="font-family: sans-serif; font-size: 10px; fill: #979797; opacity: 1;">2024-09-19</text><text text-anchor="end" transform="translate(1143.5,12) rotate(270) translate(0,3)" style="font-family: sans-serif; font-size: 10px; fill: #979797; opacity: 1;">2024-09-20</text><text text-anchor="end" transform="translate(1164.5,12) rotate(270) translate(0,3)" style="font-family: sans-serif; font-size: 10px; fill: #979797; opacity: 1;">2024-09-21</text><text text-anchor="end" transform="translate(1185.5,12) rotate(270) translate(0,3)" style="font-family: sans-serif; font-size: 10px; fill: #979797; opacity: 1;">2024-09-22</text><text text-anchor="end" transform="translate(1206.5,12) rotate(270) translate(0,3)" style="font-family: sans-serif; font-size: 10px; fill: #979797; opacity: 1;">2024-09-23</text><text text-anchor="end" transform="translate(1227.5,12) rotate(270) translate(0,3)" style="font-family: sans-serif; font-size: 10px; fill: #979797; opacity: 1;">2024-09-24</text><text text-anchor="end" transform="translate(1248.5,12) rotate(270) translate(0,3)" style="font-family: sans-serif; font-size: 10px; fill: #979797; opacity: 1;">2024-09-25</text><text text-anchor="end" transform="translate(1269.5,12) rotate(270) translate(0,3)" style="font-family: sans-serif; font-size: 10px; fill: #979797; opacity: 1;">2024-09-26</text><text text-anchor="end" transform="translate(1290.5,12) rotate(270) translate(0,3)" style="font-family: sans-serif; font-size: 10px; fill: #979797; opacity: 1;">2024-12-12</text><text text-anchor="end" transform="translate(1311.5,12) rotate(270) translate(0,3)" style="font-family: sans-serif; font-size: 10px; fill: #979797; opacity: 1;">2024-12-13</text><text text-anchor="end" transform="translate(1332.5,12) rotate(270) translate(0,3)" style="font-family: sans-serif; font-size: 10px; fill: #979797; opacity: 1;">2024-12-16</text><text text-anchor="end" transform="translate(1353.5,12) rotate(270) translate(0,3)" style="font-family: sans-serif; font-size: 10px; fill: #979797; opacity: 1;">2024-12-17</text><text text-anchor="end" transform="translate(1374.5,12) rotate(270) translate(0,3)" style="font-family: sans-serif; font-size: 10px; fill: #979797; opacity: 1;">2024-12-18</text><text text-anchor="end" transform="translate(1395.5,12) rotate(270) translate(0,3)" style="font-family: sans-serif; font-size: 10px; fill: #979797; opacity: 1;">2024-12-19</text><text text-anchor="end" transform="translate(1416.5,12) rotate(270) translate(0,3)" style="font-family: sans-serif; font-size: 10px; fill: #979797; opacity: 1;">2024-12-20</text><text text-anchor="end" transform="translate(1437.5,12) rotate(270) translate(0,3)" style="font-family: sans-serif; font-size: 10px; fill: #979797; opacity: 1;">2024-12-21</text><text text-anchor="end" transform="translate(1458.5,12) rotate(270) translate(0,3)" style="font-family: sans-serif; font-size: 10px; fill: #979797; opacity: 1;">2024-12-22</text><text text-anchor="end" transform="translate(1479.5,12) rotate(270) translate(0,3)" style="font-family: sans-serif; font-size: 10px; fill: #979797; opacity: 1;">2024-12-23</text><text text-anchor="end" transform="translate(1500.5,12) rotate(270) translate(0,3)" style="font-family: sans-serif; font-size: 10px; fill: #979797; opacity: 1;">2024-12-26</text><text text-anchor="end" transform="translate(1521.5,12) rotate(270) translate(0,3)" style="font-family: sans-serif; font-size: 10px; fill: #979797; opacity: 1;">2024-12-28</text><text text-anchor="end" transform="translate(1542.5,12) rotate(270) translate(0,3)" style="font-family: sans-serif; font-size: 10px; fill: #979797; opacity: 1;">2024-12-29</text><text text-anchor="end" transform="translate(1563.5,12) rotate(270) translate(0,3)" style="font-family: sans-serif; font-size: 10px; fill: #979797; opacity: 1;">2024-12-30</text><text text-anchor="end" transform="translate(1584.5,12) rotate(270) translate(0,3)" style="font-family: sans-serif; font-size: 10px; fill: #979797; opacity: 1;">2024-12-31</text><text text-anchor="end" transform="translate(1605.5,12) rotate(270) translate(0,3)" style="font-family: sans-serif; font-size: 10px; fill: #979797; opacity: 1;">2025-01-02</text><text text-anchor="end" transform="translate(1626.5,12) rotate(270) translate(0,3)" style="font-family: sans-serif; font-size: 10px; fill: #979797; opacity: 1;">2025-01-04</text><text text-anchor="end" transform="translate(1647.5,12) rotate(270) translate(0,3)" style="font-family: sans-serif; font-size: 10px; fill: #979797; opacity: 1;">2025-01-05</text><text text-anchor="end" transform="translate(1668.5,12) rotate(270) translate(0,3)" style="font-family: sans-serif; font-size: 10px; fill: #979797; opacity: 1;">2025-01-06</text><text text-anchor="end" transform="translate(1689.5,12) rotate(270) translate(0,3)" style="font-family: sans-serif; font-size: 10px; fill: #979797; opacity: 1;">2025-01-07</text><text text-anchor="end" transform="translate(1710.5,12) rotate(270) translate(0,3)" style="font-family: sans-serif; font-size: 10px; fill: #979797; opacity: 1;">2025-01-08</text><text text-anchor="end" transform="translate(1731.5,12) rotate(270) translate(0,3)" style="font-family: sans-serif; font-size: 10px; fill: #979797; opacity: 1;">2025-01-09</text><text text-anchor="end" transform="translate(1752.5,12) rotate(270) translate(0,3)" style="font-family: sans-serif; font-size: 10px; fill: #979797; opacity: 1;">2025-01-10</text><text text-anchor="end" transform="translate(1773.5,12) rotate(270) translate(0,3)" style="font-family: sans-serif; font-size: 10px; fill: #979797; opacity: 1;">2025-01-11</text><text text-anchor="end" transform="translate(1794.5,12) rotate(270) translate(0,3)" style="font-family: sans-serif; font-size: 10px; fill: #979797; opacity: 1;">2025-01-12</text><text text-anchor="end" transform="translate(1815.5,12) rotate(270) translate(0,3)" style="font-family: sans-serif; font-size: 10px; fill: #979797; opacity: 1;">2025-01-13</text><text text-anchor="end" transform="translate(1836.5,12) rotate(270) translate(0,3)" style="font-family: sans-serif; font-size: 10px; fill: #979797; opacity: 1;">2025-01-14</text><text text-anchor="end" transform="translate(1857.5,12) rotate(270) translate(0,3)" style="font-family: sans-serif; font-size: 10px; fill: #979797; opacity: 1;">2025-01-15</text><text text-anchor="end" transform="translate(1878.5,12) rotate(270) translate(0,3)" style="font-family: sans-serif; font-size: 10px; fill: #979797; opacity: 1;">2025-01-16</text><text text-anchor="end" transform="translate(1899.5,12) rotate(270) translate(0,3)" style="font-family: sans-serif; font-size: 10px; fill: #979797; opacity: 1;">2025-01-17</text><text text-anchor="end" transform="translate(1920.5,12) rotate(270) translate(0,3)" style="font-family: sans-serif; font-size: 10px; fill: #979797; opacity: 1;">2025-01-18</text><text text-anchor="end" transform="translate(1941.5,12) rotate(270) translate(0,3)" style="font-family: sans-serif; font-size: 10px; fill: #979797; opacity: 1;">2025-01-19</text><text text-anchor="end" transform="translate(1962.5,12) rotate(270) translate(0,3)" style="font-family: sans-serif; font-size: 10px; fill: #979797; opacity: 1;">2025-01-20</text><text text-anchor="end" transform="translate(1983.5,12) rotate(270) translate(0,3)" style="font-family: sans-serif; font-size: 10px; fill: #979797; opacity: 1;">2025-01-21</text><text text-anchor="end" transform="translate(2004.5,12) rotate(270) translate(0,3)" style="font-family: sans-serif; font-size: 10px; fill: #979797; opacity: 1;">2025-01-22</text><text text-anchor="end" transform="translate(2025.5,12) rotate(270) translate(0,3)" style="font-family: sans-serif; font-size: 10px; fill: #979797; opacity: 1;">2025-01-23</text><text text-anchor="end" transform="translate(2046.5,12) rotate(270) translate(0,3)" style="font-family: sans-serif; font-size: 10px; fill: #979797; opacity: 1;">2025-01-26</text><text text-anchor="end" transform="translate(2067.5,12) rotate(270) translate(0,3)" style="font-family: sans-serif; font-size: 10px; fill: #979797; opacity: 1;">2025-01-27</text><text text-anchor="end" transform="translate(2088.5,12) rotate(270) translate(0,3)" style="font-family: sans-serif; font-size: 10px; fill: #979797; opacity: 1;">2025-01-28</text></g><g class="mark-rule role-axis-domain" style="pointer-events: none;"><line transform="translate(0,0)" x2="2100" y2="0" style="fill: none; stroke: #979797; stroke-width: 0.5; opacity: 1;"></line></g><g class="mark-text role-axis-title" style="pointer-events: none;"><text text-anchor="middle" transform="translate(1050,77.15234375)" style="font-family: sans-serif; font-size: 11px; font-weight: bold; fill: #979797; opacity: 1;">day</text></g></g></g></g><g class="mark-group role-axis"><g transform="translate(0.5,0.5)"><path class="background" d="M0,0h0v0h0Z" style="pointer-events: none; fill: none;"></path><g><g class="mark-rule role-axis-tick" style="pointer-events: none;"><line transform="translate(0,200)" x2="0" y2="0" style="fill: none; stroke: #979797; stroke-width: 0.2; opacity: 1;"></line><line transform="translate(0,167)" x2="0" y2="0" style="fill: none; stroke: #979797; stroke-width: 0.2; opacity: 1;"></line><line transform="translate(0,133)" x2="0" y2="0" style="fill: none; stroke: #979797; stroke-width: 0.2; opacity: 1;"></line><line transform="translate(0,100)" x2="0" y2="0" style="fill: none; stroke: #979797; stroke-width: 0.2; opacity: 1;"></line><line transform="translate(0,67)" x2="0" y2="0" style="fill: none; stroke: #979797; stroke-width: 0.2; opacity: 1;"></line><line transform="translate(0,33)" x2="0" y2="0" style="fill: none; stroke: #979797; stroke-width: 0.2; opacity: 1;"></line><line transform="translate(0,0)" x2="0" y2="0" style="fill: none; stroke: #979797; stroke-width: 0.2; opacity: 1;"></line></g><g class="mark-text role-axis-label" style="pointer-events: none;"><text text-anchor="end" transform="translate(-2,203)" style="font-family: sans-serif; font-size: 10px; fill: #979797; opacity: 1;">0</text><text text-anchor="end" transform="translate(-2,169.66666666666669)" style="font-family: sans-serif; font-size: 10px; fill: #979797; opacity: 1;">1,000</text><text text-anchor="end" transform="translate(-2,136.33333333333334)" style="font-family: sans-serif; font-size: 10px; fill: #979797; opacity: 1;">2,000</text><text text-anchor="end" transform="translate(-2,103)" style="font-family: sans-serif; font-size: 10px; fill: #979797; opacity: 1;">3,000</text><text text-anchor="end" transform="translate(-2,69.66666666666669)" style="font-family: sans-serif; font-size: 10px; fill: #979797; opacity: 1;">4,000</text><text text-anchor="end" transform="translate(-2,36.333333333333314)" style="font-family: sans-serif; font-size: 10px; fill: #979797; opacity: 1;">5,000</text><text text-anchor="end" transform="translate(-2,3)" style="font-family: sans-serif; font-size: 10px; fill: #979797; opacity: 1;">6,000</text></g><g class="mark-text role-axis-title" style="pointer-events: none;"><text text-anchor="middle" transform="translate(-34,100) rotate(-90) translate(0,-2)" style="font-family: sans-serif; font-size: 11px; font-weight: bold; fill: #979797; opacity: 1;">daily_suggested_count</text></g></g></g></g></g></g></g></g></svg>